<svg xmlns="http://www.w3.org/2000/svg" width="512" height="512" viewBox="0 0 512 512">
<g>
<path d="M 260.58,147.25 L 260.19,148.78 L 259.83,150.31 L 259.62,151.27 L 258.72,155.49 L 258.26,157.77 L 257.52,161.01 L 257.02,162.85 L 256.77,163.56 L 256.30,164.82 L 256.09,165.19 L 255.70,165.74 L 255.55,165.69 L 254.70,164.77 L 254.29,163.74 L 254.20,163.18 L 254.10,162.08 L 254.19,161.67 L 254.48,161.00 L 254.79,161.00 L 255.20,160.60 L 255.49,159.96 L 255.63,159.50 L 255.90,158.49 L 256.02,157.88 L 256.24,156.60 L 256.33,155.89 L 257.04,151.94 L 257.33,150.87 L 257.48,150.47 L 257.77,149.77 L 257.91,149.61 L 258.36,148.38 L 258.28,147.45 L 258.04,147.06 L 257.63,146.69 L 257.19,146.48 L 256.86,146.40 L 256.12,146.25 L 255.62,146.20 L 254.52,146.11 L 253.81,146.09 L 252.29,146.05 L 251.34,146.05 L 249.31,146.06 L 248.08,146.09 L 245.49,146.15 L 243.95,146.20 L 240.72,146.31 L 238.84,146.38 L 224.25,147.22 L 214.94,148.06 L 210.46,148.63 L 201.61,149.88 L 197.32,150.66 L 188.82,152.34 L 184.66,153.35 L 176.40,155.48 L 172.31,156.73 L 164.18,159.35 L 160.12,160.85 L 151.99,163.97 L 147.90,165.74 L 139.68,169.41 L 135.50,171.45 L 118.41,180.65 L 107.52,187.37 L 102.34,191.02 L 92.14,198.51 L 87.31,202.54 L 77.83,210.80 L 73.36,215.20 L 64.61,224.20 L 60.50,228.97 L 52.49,238.69 L 48.76,243.81 L 41.50,254.25 L 38.16,259.73 L 31.68,270.86 L 28.73,276.68 L 24.35,285.74 L 21.64,291.79 L 20.39,294.82 L 17.96,300.89 L 16.85,303.94 L 14.68,310.07 L 13.70,313.15 L 11.80,319.35 L 10.95,322.48 L 9.30,328.76 L 8.58,331.95 L 7.18,338.35 L 6.57,341.61 L 5.42,348.15 L 4.93,351.48 L 3.57,362.48 L 3.26,365.83 L 3.16,367.23 L 3.07,368.57 L 3.04,369.14 L 3.00,370.22 L 3.00,370.64 L 2.92,373.55 L 2.78,375.01 L 2.67,375.54 L 2.39,376.47 L 2.20,376.77 L 1.78,377.26 L 1.50,377.36 L 0.78,378.01 L 0.49,378.68 L 0.48,378.18 L 0.41,372.84 L 0.37,370.06 L 0.31,363.76 L 0.30,362.12 L 0.28,358.65 L 0.27,356.88 L 0.25,353.14 L 0.24,351.24 L 0.22,347.21 L 0.21,345.17 L 0.20,340.85 L 0.20,338.66 L 0.19,334.04 L 0.19,331.69 L 0.18,326.76 L 0.18,324.25 L 0.18,318.99 L 0.18,316.32 L 0.18,310.72 L 0.18,307.88 L 0.19,301.94 L 0.19,298.92 L 0.19,298.62 L 0.19,301.79 L 0.20,308.80 L 0.21,312.03 L 0.22,318.32 L 0.23,321.19 L 0.26,326.78 L 0.27,329.31 L 0.30,334.20 L 0.32,336.39 L 0.36,340.60 L 0.38,342.45 L 0.43,345.99 L 0.45,347.51 L 0.51,350.39 L 0.54,351.59 L 0.60,353.83 L 0.63,354.70 L 0.70,356.30 L 0.74,356.87 L 0.82,357.84 L 0.86,358.10 L 0.94,358.46 L 0.99,358.41 L 1.52,357.27 L 1.94,355.88 L 2.17,354.94 L 2.64,352.93 L 2.87,351.76 L 3.33,349.35 L 3.54,348.07 L 7.37,328.77 L 10.57,316.30 L 12.49,310.27 L 16.56,298.34 L 18.92,292.56 L 23.85,281.14 L 26.65,275.62 L 32.48,264.70 L 35.72,259.41 L 42.43,248.97 L 46.12,243.93 L 53.73,233.95 L 57.88,229.13 L 66.40,219.60 L 71.00,215.00 L 79.83,206.57 L 85.85,201.22 L 88.93,198.68 L 95.14,193.69 L 98.31,191.32 L 104.69,186.69 L 107.95,184.50 L 114.51,180.22 L 117.86,178.22 L 124.60,174.30 L 128.03,172.48 L 134.94,168.92 L 138.46,167.27 L 145.54,164.08 L 149.14,162.61 L 156.39,159.78 L 160.07,158.50 L 167.49,156.02 L 171.25,154.92 L 178.83,152.82 L 182.68,151.90 L 190.42,150.15 L 194.35,149.42 L 202.24,148.04 L 206.25,147.49 L 214.31,146.47 L 218.39,146.11 L 226.60,145.46 L 230.76,145.28 L 239.12,145.00 L 261.23,145.00 M 192.27,309.20 L 193.01,309.71 L 193.46,310.27 L 194.42,311.57 L 195.02,312.53 L 196.15,314.04 L 197.09,315.07 L 197.61,315.56 L 198.68,316.50 L 199.22,316.90 L 200.29,317.64 L 200.78,317.89 L 202.31,318.68 L 202.78,318.96 L 203.50,319.45 L 203.59,319.64 L 203.60,320.01 L 203.36,320.20 L 202.72,320.62 L 202.18,320.90 L 201.13,321.41 L 200.63,321.57 L 200.46,321.57 L 200.18,321.51 L 200.10,321.39 L 200.00,321.10 L 200.00,320.87 L 199.80,320.22 L 199.50,320.16 L 199.31,320.35 L 198.70,320.33 L 198.04,320.00 L 197.64,319.71 L 195.82,318.27 L 194.87,317.34 L 193.01,315.43 L 192.39,314.60 L 191.84,313.82 L 191.70,313.51 L 191.52,312.98 L 191.60,312.84 L 191.66,312.25 L 191.37,312.00 L 191.09,312.00 L 190.53,311.56 L 190.48,310.91 L 190.64,310.50 L 191.37,309.30 L 191.93,309.05 M 200.88,238.50 L 201.15,238.61 L 201.74,238.86 L 202.12,239.06 L 203.23,239.75 L 203.52,240.14 L 203.40,240.36 L 203.00,240.85 L 202.50,241.19 L 201.30,241.96 L 200.37,242.52 L 197.11,245.06 L 196.11,246.05 L 195.70,246.54 L 194.94,247.49 L 194.69,247.92 L 193.75,249.43 L 193.34,249.92 L 192.58,250.71 L 192.25,250.84 L 191.63,250.92 L 191.36,250.69 L 190.86,250.07 L 190.64,249.50 L 190.57,248.44 L 190.89,248.00 L 191.20,248.00 L 191.80,247.80 L 191.84,247.50 L 191.65,247.31 L 191.67,246.70 L 192.00,246.04 L 192.29,245.64 L 193.73,243.82 L 194.66,242.87 L 196.57,241.01 L 197.40,240.39 L 198.18,239.84 L 198.49,239.70 L 199.02,239.52 L 199.16,239.60 L 199.75,239.64 L 200.00,239.32 L 200.00,239.02 L 200.49,238.45 M 410.56,245.28 L 411.46,245.80 L 412.09,246.28 L 413.09,247.51 L 413.37,248.41 L 413.25,248.75 L 412.89,249.58 L 412.67,249.76 L 412.20,249.99 L 411.94,249.88 L 411.39,249.52 L 411.09,249.12 L 410.49,248.18 L 410.18,247.50 L 409.61,245.90 L 409.58,245.26 L 409.74,245.16 L 410.17,245.10 M 338.00,170.50 L 338.71,171.62 L 339.00,172.80 L 339.00,173.44 L 338.81,174.81 L 338.51,175.48 L 337.79,176.75 L 337.33,177.13 L 336.45,177.77 L 336.10,177.88 L 336.03,177.74 L 335.96,177.34 L 336.02,176.91 L 336.18,175.89 L 336.33,175.12 L 336.80,172.47 L 336.91,171.73 L 336.95,171.44 L 337.00,170.94 L 337.00,170.82 L 337.29,170.34 L 337.72,170.33 M 345.22,162.54 L 345.37,162.79 L 345.43,163.12 L 345.32,163.39 L 345.03,164.00 L 344.78,164.37 L 343.49,166.04 L 342.57,166.93 L 340.26,168.77 L 339.65,169.10 L 339.40,169.18 L 338.95,169.29 L 338.80,169.26 L 338.54,169.15 L 338.50,169.02 L 338.46,168.70 L 338.54,168.46 L 338.76,167.93 L 338.97,167.59 L 339.47,166.87 L 339.83,166.43 L 341.68,164.43 L 342.83,163.42 L 343.32,163.09 L 344.25,162.57 L 344.60,162.51 M 353.32,160.09 L 353.69,160.30 L 353.63,160.53 L 353.34,161.09 L 353.00,161.50 L 352.15,162.24 L 351.55,162.48 L 350.27,162.89 L 349.61,162.95 L 348.30,162.99 L 347.76,162.85 L 346.79,162.48 L 346.58,162.12 L 346.61,161.73 L 346.87,161.45 L 347.11,161.32 L 348.29,160.79 L 349.14,160.62 L 351.88,160.14 L 353.04,160.03 M 416.16,149.08 L 416.31,149.25 L 416.65,149.65 L 416.87,149.97 L 417.37,151.28 L 417.12,151.94 L 416.70,152.21 L 416.13,152.75 L 416.19,152.98 L 416.45,152.98 L 416.52,153.30 L 416.25,153.80 L 415.99,154.16 L 415.38,154.95 L 414.97,155.42 L 414.07,156.41 L 413.54,156.96 L 411.98,158.46 L 411.01,159.30 L 410.59,159.62 L 409.81,160.18 L 409.52,160.32 L 409.03,160.52 L 408.92,160.45 L 408.49,160.32 L 408.29,160.41 L 407.93,160.69 L 407.84,160.96 L 407.19,161.41 L 406.47,161.22 L 406.00,160.89 L 405.25,160.32 L 405.00,160.04 L 405.00,159.93 L 405.08,159.71 L 405.25,159.61 L 405.67,159.40 L 406.00,159.27 L 406.87,158.76 L 407.65,158.18 L 408.12,157.80 L 410.11,156.08 L 411.10,155.10 L 413.80,152.12 L 414.51,151.23 L 414.76,150.87 L 415.19,150.21 L 415.27,150.00 L 415.61,149.26 L 415.81,149.01 L 415.92,149.01 M 402.01,1.94 L 403.12,2.21 L 405.26,2.66 L 406.30,2.87 L 408.12,3.17 L 408.98,3.30 L 410.27,3.43 L 411.41,3.40 L 411.69,3.29 L 412.96,3.40 L 413.70,3.51 L 415.74,4.00 L 416.84,4.28 L 419.47,5.07 L 420.84,5.50 L 423.86,6.54 L 425.67,7.17 L 424.67,6.88 L 423.72,6.69 L 423.34,6.64 L 422.64,6.57 L 422.40,6.59 L 421.98,6.65 L 421.89,6.72 L 421.78,6.90 L 421.85,7.04 L 422.08,7.34 L 422.34,7.53 L 422.95,7.95 L 423.40,8.20 L 425.18,9.36 L 426.61,10.42 L 427.41,11.07 L 430.81,13.92 L 432.63,15.59 L 436.28,19.03 L 437.94,20.73 L 439.55,22.41 L 440.27,23.21 L 441.64,24.75 L 442.20,25.45 L 446.05,30.61 L 448.33,34.09 L 449.33,35.85 L 451.24,39.41 L 452.06,41.23 L 453.61,44.90 L 454.25,46.79 L 455.44,50.61 L 455.92,52.59 L 456.78,56.60 L 457.09,58.69 L 457.62,62.93 L 457.77,65.14 L 458.00,69.64 L 458.00,72.00 L 457.65,80.10 L 457.06,85.30 L 456.59,87.80 L 455.54,92.74 L 454.83,95.11 L 453.30,99.79 L 452.35,102.04 L 450.34,106.48 L 449.15,108.61 L 446.66,112.81 L 445.23,114.82 L 442.25,118.79 L 440.58,120.69 L 437.11,124.44 L 435.19,126.23 L 433.05,128.10 L 431.39,129.47 L 430.48,130.17 L 426.68,133.04 L 424.80,134.34 L 422.95,135.62 L 422.09,136.18 L 420.44,137.23 L 419.73,137.65 L 418.41,138.41 L 417.92,138.64 L 417.06,139.00 L 416.84,139.00 L 416.18,138.90 L 415.94,138.75 L 415.91,138.63 L 416.04,138.03 L 416.45,137.60 L 417.50,136.64 L 418.33,136.05 L 420.21,134.81 L 421.43,134.13 L 426.48,130.88 L 429.76,128.37 L 431.35,126.97 L 434.47,124.06 L 435.97,122.48 L 438.89,119.23 L 440.27,117.49 L 442.95,113.95 L 444.19,112.09 L 446.59,108.32 L 447.67,106.36 L 449.74,102.40 L 450.63,100.38 L 452.33,96.30 L 453.03,94.23 L 453.99,91.26 L 454.53,89.51 L 454.76,88.71 L 455.52,85.68 L 455.76,84.20 L 456.14,81.19 L 456.23,79.40 L 456.32,77.54 L 456.34,76.48 L 456.38,74.27 L 456.39,73.00 L 456.38,68.70 L 456.30,66.08 L 456.23,64.87 L 455.82,60.24 L 455.44,58.09 L 454.53,53.87 L 453.85,51.68 L 453.12,49.47 L 452.70,48.31 L 451.80,45.93 L 451.28,44.66 L 447.61,37.05 L 444.69,32.20 L 443.01,29.91 L 439.53,25.42 L 437.59,23.33 L 433.61,19.26 L 431.45,17.40 L 427.04,13.80 L 424.70,12.19 L 419.92,9.13 L 417.42,7.81 L 412.35,5.34 L 409.74,4.35 L 404.44,2.52 L 402.01,1.94 M 4.75,92.50 L 4.46,93.40 L 3.37,96.89 L 2.95,98.83 L 2.76,99.77 L 2.93,98.89 L 3.36,96.88 L 4.45,93.39 L 4.74,92.49 L 5.41,90.59 L 6.51,87.38 L 5.41,90.59 M 465.68,29.56 L 469.23,32.50 L 475.81,38.93 L 479.00,42.24 L 484.83,49.37 L 487.66,53.03 L 489.31,55.57 L 485.63,50.49 L 483.56,47.94 L 479.30,42.88 L 476.98,40.41 L 472.21,35.49 L 469.63,33.07 L 465.35,29.32 L 464.96,29.00 M 458.39,23.87 L 460.91,25.84 L 460.56,25.58 L 454.48,21.31 M 446.49,16.37 L 449.02,17.93 L 445.03,15.62 M 398.93,1.32 L 400.05,1.55 L 398.81,1.30 M 397.73,1.15 L 398.07,1.19 L 397.63,1.14 M 395.49,0.92 L 396.45,1.01 L 395.22,0.90 M 267.30,0.00 L 271.23,0.00 L 278.75,0.00 L 282.45,0.00 L 289.49,0.00 L 292.96,0.00 L 299.55,0.01 L 302.80,0.01 L 308.96,0.01 L 311.99,0.01 L 317.73,0.02 L 320.55,0.02 L 325.89,0.03 L 328.51,0.03 L 333.46,0.04 L 335.89,0.04 L 340.47,0.05 L 342.72,0.06 L 346.95,0.07 L 349.02,0.08 L 352.91,0.09 L 354.81,0.10 L 358.38,0.12 L 360.12,0.13 L 363.38,0.15 L 364.97,0.16 L 367.94,0.18 L 369.39,0.20 L 372.09,0.22 L 373.40,0.24 L 375.84,0.27 L 378.21,0.30 L 382.26,0.37 L 384.17,0.41 L 387.39,0.50 L 388.91,0.55 L 391.43,0.66 L 392.62,0.72 L 394.58,0.85 L 395.16,0.89 L 394.27,0.83 L 392.27,0.70 L 391.06,0.65 L 388.48,0.54 L 386.94,0.50 L 383.66,0.41 L 381.72,0.37 L 377.63,0.30 L 375.23,0.27 L 370.19,0.21 L 367.28,0.19 L 364.29,0.16 L 362.69,0.15 L 359.42,0.13 L 357.67,0.12 L 354.10,0.10 L 352.20,0.10 L 348.31,0.08 L 346.24,0.07 L 342.02,0.06 L 339.78,0.06 L 335.21,0.05 L 332.79,0.04 L 327.86,0.03 L 325.25,0.03 L 319.94,0.02 L 317.13,0.02 L 311.43,0.01 L 308.42,0.01 L 302.31,0.01 L 299.09,0.01 L 292.55,0.00 L 289.12,0.00 L 282.14,0.00 L 278.48,0.00 L 271.05,0.00 L 267.15,0.00 L 259.25,0.00 L 259.30,0.00 Z" fill="rgba(56,101,186,1)"/>
<path d="M 115.38,511.38 L 116.96,511.42 L 118.06,511.44 L 120.46,511.49 L 121.95,511.50 L 125.11,511.54 L 126.95,511.56 L 130.82,511.59 L 132.99,511.61 L 137.50,511.64 L 139.98,511.65 L 145.07,511.68 L 147.82,511.69 L 153.44,511.71 L 156.43,511.72 L 162.51,511.74 L 165.71,511.75 L 172.21,511.77 L 175.59,511.77 L 182.44,511.78 L 185.97,511.79 L 193.11,511.80 L 196.77,511.80 L 211.62,511.81 L 219.26,511.81 L 234.63,511.81 L 242.34,511.80 L 257.76,511.78 L 265.33,511.77 L 280.32,511.74 L 287.50,511.72 L 294.61,511.70 L 298.06,511.69 L 304.88,511.67 L 308.16,511.66 L 314.62,511.63 L 317.69,511.62 L 323.74,511.59 L 326.59,511.57 L 332.16,511.54 L 334.75,511.53 L 339.80,511.49 L 342.10,511.47 L 346.55,511.44 L 348.53,511.42 L 352.34,511.38 L 353.97,511.36 L 357.07,511.32 L 358.33,511.30 L 360.65,511.25 L 361.51,511.23 L 363.01,511.18 L 363.43,511.16 L 364.04,511.11 L 364.00,511.08 L 363.14,510.70 L 362.37,510.42 L 361.91,510.28 L 359.96,509.73 L 359.00,509.54 L 356.42,508.96 L 354.40,508.44 L 353.29,508.14 L 348.67,506.83 L 346.40,506.13 L 344.17,505.42 L 343.15,505.08 L 341.19,504.42 L 340.37,504.13 L 338.86,503.56 L 338.32,503.33 L 337.42,502.91 L 337.25,502.78 L 337.07,502.40 L 336.96,501.91 L 336.91,501.53 L 336.82,500.69 L 336.77,500.12 L 336.68,498.90 L 336.64,498.13 L 336.56,496.49 L 336.52,495.51 L 336.45,493.42 L 336.42,492.20 L 336.36,489.63 L 336.33,488.16 L 336.28,485.08 L 336.26,483.33 L 336.21,479.71 L 336.19,477.69 L 336.15,473.49 L 336.14,471.16 L 336.11,466.35 L 336.09,463.71 L 336.07,458.26 L 336.06,455.28 L 336.04,449.16 L 336.03,445.84 L 336.02,439.01 L 336.01,435.32 L 336.01,427.75 L 336.00,423.68 L 336.00,415.35 L 336.00,320.00 L 363.85,320.00 L 368.67,320.00 L 371.58,320.00 L 372.90,319.99 L 375.45,319.99 L 376.59,319.98 L 378.80,319.97 L 379.79,319.96 L 381.69,319.94 L 382.53,319.92 L 384.15,319.89 L 384.86,319.87 L 387.47,319.77 L 388.47,319.70 L 390.27,319.54 L 390.95,319.43 L 392.17,319.18 L 392.64,319.02 L 394.25,318.28 L 395.08,317.73 L 397.19,316.18 L 398.39,315.10 L 398.91,314.46 L 399.92,313.10 L 400.38,312.23 L 401.26,310.36 L 401.69,309.15 L 402.55,306.53 L 402.99,304.86 L 403.44,303.13 L 403.67,302.16 L 404.15,300.15 L 404.40,299.03 L 404.90,296.71 L 405.17,295.42 L 405.73,292.77 L 406.02,291.30 L 406.63,288.28 L 406.96,286.62 L 407.63,283.21 L 408.00,281.34 L 413.50,253.24 L 421.36,250.96 L 423.18,250.39 L 424.57,249.90 L 425.33,249.62 L 428.57,248.39 L 430.33,247.65 L 433.93,246.13 L 435.72,245.33 L 439.26,243.70 L 440.86,242.90 L 452.66,236.23 L 460.14,231.19 L 463.65,228.39 L 470.54,222.63 L 473.75,219.50 L 479.99,213.08 L 482.85,209.66 L 488.39,202.66 L 490.87,198.98 L 495.64,191.48 L 497.72,187.57 L 501.66,179.64 L 503.30,175.54 L 506.36,167.25 L 507.53,163.00 L 508.63,159.14 L 509.36,156.71 L 509.69,155.65 L 510.33,153.65 L 510.59,152.91 L 511.07,151.61 L 511.21,151.31 L 511.42,150.57 L 511.43,151.63 L 511.45,155.77 L 511.46,157.88 L 511.48,162.39 L 511.50,164.69 L 511.52,169.59 L 511.53,172.08 L 511.55,177.38 L 511.56,180.08 L 511.58,185.81 L 511.58,188.72 L 511.60,194.88 L 511.61,198.02 L 511.63,204.64 L 511.64,208.01 L 511.66,215.10 L 511.67,218.71 L 511.69,226.30 L 511.70,230.16 L 511.72,238.26 L 511.75,251.00 L 511.76,257.04 L 511.79,268.55 L 511.80,274.21 L 511.81,284.95 L 511.82,290.23 L 511.83,300.22 L 511.83,305.13 L 511.84,314.38 L 511.84,318.91 L 511.83,327.42 L 511.83,331.58 L 511.81,339.36 L 511.81,343.16 L 511.79,350.21 L 511.77,353.65 L 511.75,359.98 L 511.73,363.06 L 511.70,368.69 L 511.68,371.42 L 511.63,376.34 L 511.61,378.72 L 511.56,382.94 L 511.53,384.97 L 511.48,388.51 L 511.45,390.20 L 511.38,393.06 L 511.34,394.40 L 511.27,396.59 L 511.23,397.60 L 511.15,399.12 L 511.02,400.66 L 510.55,404.21 L 509.19,411.18 L 508.43,414.64 L 506.51,421.39 L 505.49,424.74 L 503.03,431.26 L 501.74,434.49 L 498.79,440.75 L 497.25,443.84 L 493.81,449.81 L 492.03,452.76 L 488.14,458.42 L 486.13,461.20 L 481.81,466.52 L 479.60,469.14 L 474.86,474.10 L 472.45,476.53 L 467.34,481.10 L 464.73,483.34 L 459.27,487.50 L 456.49,489.52 L 450.69,493.24 L 447.75,495.05 L 441.64,498.31 L 438.55,499.87 L 432.16,502.65 L 428.93,503.97 L 422.29,506.23 L 418.93,507.29 L 412.05,509.01 L 401.50,510.97 L 401.30,510.99 L 400.12,511.05 L 399.42,511.08 L 397.29,511.13 L 396.11,511.16 L 393.09,511.21 L 391.47,511.24 L 387.62,511.28 L 385.60,511.31 L 380.98,511.35 L 378.58,511.38 L 373.27,511.42 L 370.53,511.44 L 364.58,511.48 L 361.54,511.50 L 355.02,511.54 L 351.69,511.56 L 344.67,511.59 L 341.10,511.61 L 333.64,511.64 L 329.86,511.66 L 322.02,511.68 L 318.06,511.70 L 309.91,511.72 L 301.69,511.75 L 284.60,511.78 L 275.99,511.80 L 258.49,511.83 L 249.75,511.84 L 232.37,511.85 L 223.74,511.85 L 206.99,511.84 L 202.87,511.84 L 194.83,511.83 L 190.85,511.83 L 183.14,511.82 L 179.34,511.81 L 172.03,511.80 L 168.44,511.79 L 161.60,511.77 L 158.24,511.76 L 151.94,511.73 L 148.85,511.72 L 143.14,511.69 L 140.36,511.68 L 135.31,511.65 L 132.87,511.63 L 128.53,511.59 L 126.46,511.57 L 122.92,511.53 L 121.25,511.51 L 118.56,511.46 L 117.33,511.44 L 115.56,511.39 L 114.79,511.36 L 114.00,511.31 L 114.70,511.35 M 506.43,90.87 L 509.29,101.00 L 509.55,102.05 L 509.98,104.11 L 510.08,104.67 L 510.27,105.95 L 510.35,106.64 L 510.51,108.27 L 510.59,109.15 L 510.72,111.28 L 510.78,112.42 L 510.86,114.17 L 510.72,112.63 L 510.25,107.90 L 509.99,105.93 L 509.72,104.03 L 509.58,103.20 L 509.29,101.64 L 509.15,101.00 L 506.50,91.14 L 505.49,88.04 M 476.98,40.41 L 479.30,42.88 L 483.56,47.94 L 485.63,50.49 L 489.42,55.72 L 491.26,58.37 L 494.59,63.84 L 496.21,66.61 L 496.26,66.71 L 494.81,64.22 L 491.45,58.69 L 489.59,56.01 L 485.77,50.69 L 483.67,48.11 L 479.37,42.98 L 477.03,40.47 L 472.60,35.89 Z" fill="rgba(30,75,160,1)"/>
<path d="M 490.87,198.98 L 488.39,202.66 L 487.57,203.70 L 488.70,202.08 L 492.52,196.38 M 511.85,131.29 L 511.97,136.44 L 512.01,138.94 L 511.98,143.32 L 511.96,144.34 L 511.89,146.16 L 511.85,147.03 L 511.74,148.50 L 511.67,149.19 L 511.51,150.24 L 511.21,151.31 L 511.07,151.61 L 510.59,152.91 L 510.33,153.65 L 509.69,155.65 L 509.36,156.71 L 508.63,159.14 L 507.53,163.00 L 506.36,167.25 L 503.30,175.54 L 501.66,179.64 L 497.72,187.57 L 495.64,191.48 L 492.72,196.06 L 494.46,193.09 L 497.98,186.80 L 499.57,183.50 L 502.80,176.30 L 504.70,171.52 L 505.52,169.12 L 507.09,164.32 L 507.75,161.91 L 508.98,157.07 L 509.48,154.63 L 510.39,149.71 L 510.72,147.22 L 511.32,142.21 L 511.50,139.65 L 511.79,134.50 L 511.81,131.87 L 511.81,130.28 M 509.15,101.00 L 509.29,101.64 L 509.58,103.20 L 509.72,104.03 L 509.99,105.93 L 510.25,107.90 L 510.37,109.16 L 509.70,104.66 L 509.27,102.44 L 508.39,98.18 M 506.50,91.14 L 506.93,92.75 L 506.32,90.59 M 500.76,75.71 L 501.19,76.75 L 499.80,73.70 M 494.81,64.22 L 496.44,67.02 L 497.91,69.92 L 492.53,60.47 M 489.59,56.01 L 491.45,58.69 L 492.16,59.86 L 489.25,55.54 M 483.67,48.11 L 485.77,50.69 L 486.45,51.64 L 485.30,50.17 L 481.59,45.63 M 460.56,25.58 L 462.23,26.81 L 465.35,29.32 L 469.63,33.07 L 472.22,35.50 L 477.03,40.47 L 479.37,42.98 L 479.73,43.41 L 477.33,40.85 L 471.60,34.99 L 468.56,32.27 L 462.36,26.96 L 459.41,24.77 M 429.96,8.50 L 428.30,7.93 L 429.96,8.50 Z" fill="rgba(40,85,170,1)"/>
<path d="M 253.81,146.09 L 254.52,146.11 L 255.62,146.20 L 256.12,146.25 L 256.86,146.40 L 257.19,146.48 L 257.63,146.69 L 258.04,147.06 L 258.28,147.45 L 258.36,148.38 L 257.91,149.61 L 257.77,149.77 L 257.48,150.47 L 257.33,150.87 L 257.04,151.94 L 256.33,155.89 L 256.24,156.60 L 256.02,157.88 L 255.90,158.49 L 255.63,159.50 L 255.49,159.96 L 255.20,160.60 L 254.79,161.00 L 254.48,161.00 L 254.19,161.67 L 254.10,162.08 L 254.20,163.18 L 254.29,163.74 L 254.70,164.77 L 255.55,165.69 L 255.70,165.74 L 256.09,165.19 L 256.30,164.82 L 256.77,163.56 L 257.02,162.85 L 257.52,161.01 L 257.89,159.41 L 257.77,160.33 L 257.42,163.32 L 257.28,165.07 L 257.03,168.76 L 256.93,170.99 L 256.84,173.29 L 256.80,174.56 L 256.72,177.18 L 256.68,178.63 L 256.61,181.61 L 256.58,183.26 L 256.51,186.65 L 256.48,188.51 L 256.42,192.36 L 256.39,194.47 L 256.33,198.82 L 256.30,201.19 L 255.78,239.88 L 229.64,240.19 L 225.25,240.24 L 222.58,240.28 L 221.37,240.30 L 219.02,240.33 L 217.96,240.35 L 215.92,240.39 L 215.00,240.41 L 211.58,240.50 L 210.22,240.56 L 207.72,240.69 L 206.75,240.77 L 204.98,240.95 L 204.29,241.06 L 203.04,241.30 L 202.54,241.46 L 201.24,241.99 L 201.30,241.96 L 202.50,241.19 L 203.00,240.85 L 203.40,240.36 L 203.52,240.14 L 203.23,239.75 L 202.12,239.06 L 201.74,238.86 L 201.15,238.61 L 200.88,238.50 L 200.49,238.45 L 200.00,239.02 L 200.00,239.32 L 199.75,239.64 L 199.16,239.60 L 199.02,239.52 L 198.49,239.70 L 198.18,239.84 L 197.40,240.39 L 196.57,241.01 L 194.66,242.87 L 193.73,243.82 L 192.29,245.64 L 192.00,246.04 L 191.67,246.70 L 191.65,247.31 L 191.84,247.50 L 191.80,247.80 L 191.20,248.00 L 190.89,248.00 L 190.57,248.44 L 190.64,249.50 L 190.86,250.07 L 191.36,250.69 L 191.63,250.92 L 192.25,250.84 L 192.58,250.71 L 193.34,249.92 L 193.75,249.43 L 194.43,248.33 L 193.40,250.71 L 193.14,251.83 L 193.04,252.57 L 192.86,254.18 L 192.80,255.24 L 192.68,257.53 L 192.64,259.01 L 192.60,260.54 L 192.59,261.40 L 192.56,263.19 L 192.55,264.19 L 192.53,266.26 L 192.52,267.41 L 192.51,269.78 L 192.51,271.09 L 192.50,273.79 L 192.50,275.27 L 192.50,278.33 L 192.50,280.00 L 192.50,284.97 L 192.50,287.97 L 192.51,289.32 L 192.51,291.94 L 192.52,293.12 L 192.53,295.39 L 192.54,296.41 L 192.56,298.36 L 192.58,299.22 L 192.61,300.88 L 192.63,301.61 L 192.73,304.29 L 192.80,305.31 L 192.97,307.15 L 193.09,307.85 L 193.34,309.12 L 193.50,309.62 L 194.27,311.35 L 194.32,311.43 L 193.46,310.27 L 193.01,309.71 L 192.27,309.20 L 191.93,309.05 L 191.37,309.30 L 190.64,310.50 L 190.48,310.91 L 190.53,311.56 L 191.09,312.00 L 191.37,312.00 L 191.66,312.25 L 191.60,312.84 L 191.52,312.98 L 191.70,313.51 L 191.84,313.82 L 192.39,314.60 L 193.01,315.43 L 194.87,317.34 L 195.82,318.27 L 197.64,319.71 L 198.04,320.00 L 198.70,320.33 L 199.31,320.35 L 199.50,320.16 L 199.80,320.22 L 200.00,320.87 L 200.00,321.10 L 200.10,321.39 L 200.18,321.51 L 200.46,321.57 L 200.63,321.57 L 201.13,321.41 L 202.18,320.90 L 202.72,320.62 L 203.36,320.20 L 203.60,320.01 L 203.59,319.64 L 203.50,319.45 L 202.78,318.96 L 202.31,318.68 L 201.76,318.40 L 202.31,318.60 L 203.49,318.86 L 206.04,319.32 L 207.66,319.47 L 209.34,319.61 L 210.28,319.67 L 212.23,319.77 L 213.32,319.81 L 215.57,319.88 L 216.81,319.91 L 219.38,319.95 L 220.80,319.97 L 223.73,319.99 L 225.34,319.99 L 228.65,320.00 L 256.00,320.00 L 256.00,511.78 L 242.34,511.80 L 234.63,511.81 L 219.26,511.81 L 211.62,511.81 L 196.77,511.80 L 193.11,511.80 L 185.97,511.79 L 182.44,511.78 L 175.59,511.77 L 172.21,511.77 L 165.71,511.75 L 162.51,511.74 L 156.43,511.72 L 153.44,511.71 L 147.82,511.69 L 145.07,511.68 L 139.98,511.65 L 137.50,511.64 L 132.99,511.61 L 130.82,511.59 L 126.95,511.56 L 125.11,511.54 L 121.95,511.50 L 120.46,511.49 L 118.06,511.44 L 116.96,511.42 L 115.38,511.38 L 114.70,511.35 L 114.00,511.31 L 113.05,511.20 L 110.95,510.91 L 109.87,510.75 L 107.56,510.34 L 105.22,509.92 L 100.19,508.81 L 97.67,508.22 L 92.72,506.89 L 86.00,504.78 L 84.81,504.36 L 82.15,503.33 L 80.78,502.78 L 77.92,501.55 L 75.03,500.29 L 69.43,497.60 L 68.10,496.95 L 65.71,495.70 L 64.58,495.09 L 62.72,494.02 L 61.88,493.52 L 60.73,492.71 L 60.00,491.90 L 60.00,491.65 L 59.63,491.26 L 58.75,490.99 L 58.39,490.99 L 57.17,490.45 L 56.49,490.10 L 54.72,488.94 L 53.78,488.29 L 51.58,486.63 L 50.44,485.74 L 47.95,483.67 L 46.67,482.59 L 44.00,480.22 L 42.65,479.00 L 39.93,476.43 L 32.16,468.51 L 30.47,466.66 L 27.16,462.53 L 25.53,460.41 L 22.36,455.86 L 20.81,453.54 L 17.86,448.68 L 16.42,446.23 L 13.76,441.22 L 12.47,438.70 L 10.17,433.66 L 9.06,431.15 L 7.18,426.22 L 6.30,423.78 L 4.92,419.10 L 3.47,412.50 L 3.25,411.12 L 2.78,408.53 L 2.67,407.94 L 2.48,406.98 L 2.25,406.00 L 2.11,405.52 L 1.85,404.31 L 1.72,403.67 L 1.46,402.20 L 1.21,400.67 L 0.79,397.06 L 0.59,395.21 L 0.30,391.32 L 0.08,385.72 L 0.07,384.21 L 0.11,381.92 L 0.15,380.89 L 0.33,379.44 L 0.44,378.80 L 0.78,378.01 L 1.50,377.36 L 1.78,377.26 L 2.20,376.77 L 2.39,376.47 L 2.67,375.54 L 2.78,375.01 L 2.92,373.55 L 3.00,370.64 L 3.00,370.22 L 3.04,369.14 L 3.07,368.57 L 3.16,367.23 L 3.26,365.83 L 3.57,362.48 L 4.93,351.48 L 5.42,348.15 L 6.57,341.61 L 7.18,338.35 L 8.58,331.95 L 9.30,328.76 L 10.95,322.48 L 11.80,319.35 L 13.70,313.15 L 14.68,310.07 L 16.85,303.94 L 17.96,300.89 L 20.39,294.82 L 21.64,291.79 L 24.35,285.74 L 28.73,276.68 L 31.68,270.86 L 38.16,259.73 L 41.50,254.25 L 48.76,243.81 L 52.49,238.69 L 60.50,228.97 L 64.61,224.20 L 73.36,215.20 L 77.83,210.80 L 87.31,202.54 L 92.14,198.51 L 102.34,191.02 L 107.52,187.37 L 118.41,180.65 L 135.50,171.45 L 139.68,169.41 L 147.90,165.74 L 151.99,163.97 L 160.12,160.85 L 164.18,159.35 L 172.31,156.73 L 176.40,155.48 L 184.66,153.35 L 188.82,152.34 L 197.32,150.66 L 201.61,149.88 L 210.46,148.63 L 214.94,148.06 L 224.25,147.22 L 238.84,146.38 L 240.72,146.31 L 243.95,146.20 L 245.49,146.15 L 248.08,146.09 L 249.31,146.06 L 251.34,146.05 L 252.29,146.05 M 337.25,505.46 L 343.31,507.38 L 346.75,508.44 L 348.20,508.89 L 350.93,509.71 L 352.07,510.03 L 354.20,510.63 L 355.08,510.86 L 356.73,511.26 L 357.00,511.32 L 353.97,511.36 L 352.34,511.38 L 348.53,511.42 L 346.55,511.44 L 342.10,511.47 L 339.80,511.49 L 336.00,511.52 L 336.00,508.53 L 336.08,507.04 L 336.21,506.28 L 336.31,506.03 L 336.55,505.60 L 336.70,505.50 L 337.04,505.39 M 356.42,508.96 L 359.00,509.54 L 359.96,509.73 L 361.91,510.28 L 362.37,510.42 L 363.14,510.70 L 363.76,510.98 L 361.00,510.22 L 356.30,508.93 M 336.42,492.20 L 336.45,493.42 L 336.52,495.51 L 336.56,496.49 L 336.64,498.13 L 336.68,498.90 L 336.77,500.12 L 336.82,500.69 L 336.91,501.53 L 336.96,501.91 L 337.07,502.40 L 337.25,502.78 L 337.42,502.91 L 338.32,503.33 L 338.86,503.56 L 340.37,504.13 L 340.61,504.21 L 340.04,504.02 L 339.45,503.80 L 338.38,503.38 L 338.01,503.21 L 337.39,502.90 L 337.25,502.79 L 337.07,502.41 L 336.96,501.92 L 336.91,501.54 L 336.82,500.69 L 336.77,500.13 L 336.68,498.90 L 336.64,498.14 L 336.56,496.50 L 336.52,495.51 L 336.45,493.42 L 336.42,492.20 L 336.36,489.63 L 336.36,489.63 M 195.03,312.54 L 195.02,312.53 L 195.01,312.51 M 401.26,310.36 L 401.25,310.39 L 401.50,309.70 M 423.34,6.64 L 423.72,6.69 L 424.67,6.88 L 428.30,7.93 L 431.83,9.15 L 438.84,12.25 L 442.33,13.91 L 449.16,17.84 L 452.55,19.89 L 459.12,24.55 L 462.36,26.96 L 468.56,32.27 L 471.60,34.99 L 477.33,40.85 L 480.13,43.84 L 485.30,50.17 L 487.81,53.38 L 492.32,60.10 L 498.24,70.50 L 499.30,72.62 L 501.22,76.83 L 502.15,78.93 L 503.80,83.12 L 505.39,87.32 L 507.81,95.86 L 508.35,98.02 L 509.27,102.44 L 509.70,104.66 L 510.39,109.25 L 510.71,111.56 L 511.18,116.35 L 511.67,123.83 L 511.79,126.55 L 511.81,131.87 L 511.79,134.50 L 511.74,135.28 L 511.73,135.25 L 511.64,135.32 L 511.42,135.61 L 511.27,136.00 L 510.68,137.21 L 510.23,137.86 L 510.06,138.00 L 509.71,138.88 L 509.41,140.08 L 509.24,140.92 L 508.89,142.73 L 508.71,143.80 L 508.35,146.02 L 508.18,147.22 L 506.46,156.78 L 504.97,162.97 L 504.04,165.99 L 502.08,171.97 L 500.92,174.88 L 498.48,180.65 L 497.08,183.45 L 494.17,189.02 L 492.53,191.73 L 489.13,197.11 L 487.25,199.73 L 483.36,204.92 L 481.23,207.45 L 476.85,212.47 L 474.48,214.92 L 468.72,220.57 L 464.83,224.09 L 462.87,225.73 L 458.92,228.93 L 456.91,230.41 L 452.88,233.30 L 450.84,234.62 L 446.72,237.20 L 444.62,238.38 L 440.41,240.66 L 438.26,241.68 L 433.93,243.67 L 431.72,244.55 L 427.27,246.25 L 425.00,247.00 L 421.21,248.24 L 418.88,249.00 L 417.90,249.32 L 416.09,249.92 L 415.45,250.13 L 414.37,250.49 L 414.19,250.55 L 413.44,251.15 L 413.33,251.72 L 413.50,252.00 L 414.01,252.38 L 414.54,252.41 L 415.80,252.39 L 416.67,252.24 L 417.64,252.04 L 413.50,253.24 L 413.19,254.80 L 411.55,250.48 L 409.31,246.45 L 408.35,245.22 L 407.83,244.68 L 406.78,243.64 L 406.24,243.23 L 402.66,240.50 L 335.90,239.88 L 336.20,205.69 L 336.25,200.01 L 336.29,196.55 L 336.30,194.98 L 336.34,191.94 L 336.36,190.57 L 336.39,187.91 L 336.41,186.72 L 336.46,184.41 L 336.48,183.38 L 336.53,181.41 L 336.56,180.53 L 336.61,178.84 L 336.65,178.10 L 336.67,177.61 L 337.33,177.13 L 337.79,176.75 L 338.51,175.48 L 338.81,174.81 L 339.00,173.44 L 339.00,172.80 L 338.71,171.62 L 338.00,170.50 L 337.72,170.33 L 337.53,170.33 L 337.69,169.79 L 337.87,169.37 L 338.27,168.57 L 338.50,168.18 L 339.55,166.72 L 340.44,165.69 L 340.94,165.20 L 341.13,165.02 L 339.83,166.43 L 339.47,166.87 L 338.97,167.59 L 338.76,167.93 L 338.54,168.46 L 338.46,168.70 L 338.50,169.02 L 338.54,169.15 L 338.80,169.26 L 338.95,169.29 L 339.40,169.18 L 339.65,169.10 L 340.26,168.77 L 342.57,166.93 L 343.49,166.04 L 344.78,164.37 L 345.03,164.00 L 345.32,163.39 L 345.43,163.12 L 345.37,162.79 L 345.22,162.54 L 344.60,162.51 L 344.25,162.57 L 343.52,162.98 L 344.00,162.68 L 346.60,161.45 L 347.09,161.33 L 346.87,161.45 L 346.61,161.73 L 346.58,162.12 L 346.79,162.48 L 347.76,162.85 L 348.30,162.99 L 349.61,162.95 L 350.27,162.89 L 351.55,162.48 L 352.15,162.24 L 353.00,161.50 L 353.34,161.09 L 353.61,160.57 L 355.01,160.51 L 356.57,160.44 L 357.46,160.41 L 359.29,160.36 L 360.32,160.33 L 362.45,160.27 L 363.63,160.25 L 366.08,160.19 L 367.43,160.17 L 370.23,160.11 L 371.77,160.09 L 374.94,160.03 L 376.68,160.00 L 381.56,159.91 L 384.53,159.86 L 385.88,159.83 L 388.48,159.78 L 389.66,159.75 L 391.94,159.70 L 392.96,159.67 L 394.93,159.62 L 395.80,159.59 L 397.49,159.53 L 398.24,159.49 L 400.98,159.35 L 402.04,159.27 L 403.95,159.09 L 404.67,158.97 L 405.95,158.73 L 406.44,158.58 L 407.98,157.92 L 407.65,158.18 L 406.87,158.76 L 406.00,159.27 L 405.67,159.40 L 405.25,159.61 L 405.08,159.71 L 405.00,159.93 L 405.00,160.04 L 405.25,160.32 L 406.00,160.89 L 406.47,161.22 L 407.19,161.41 L 407.84,160.96 L 407.93,160.69 L 408.29,160.41 L 408.49,160.32 L 408.92,160.45 L 409.03,160.52 L 409.52,160.32 L 409.81,160.18 L 410.59,159.62 L 411.01,159.30 L 411.98,158.46 L 413.54,156.96 L 414.07,156.41 L 414.97,155.42 L 415.38,154.95 L 415.99,154.16 L 416.25,153.80 L 416.52,153.30 L 416.45,152.98 L 416.19,152.98 L 416.13,152.75 L 416.70,152.21 L 417.12,151.94 L 417.37,151.28 L 416.87,149.97 L 416.65,149.65 L 416.31,149.25 L 416.16,149.08 L 415.92,149.01 L 415.81,149.01 L 415.61,149.26 L 415.27,150.00 L 415.19,150.21 L 414.76,150.87 L 414.51,151.23 L 413.80,152.12 L 413.72,152.21 L 414.27,151.13 L 415.29,148.70 L 415.58,147.35 L 416.00,144.53 L 416.00,138.79 L 416.18,138.90 L 416.84,139.00 L 417.06,139.00 L 417.92,138.64 L 418.41,138.41 L 419.73,137.65 L 420.44,137.23 L 422.09,136.18 L 422.95,135.62 L 424.80,134.34 L 426.68,133.04 L 430.48,130.17 L 431.39,129.47 L 433.05,128.10 L 435.19,126.23 L 437.11,124.44 L 440.58,120.69 L 442.25,118.79 L 445.23,114.82 L 446.66,112.81 L 449.15,108.61 L 450.34,106.48 L 452.35,102.04 L 453.30,99.79 L 454.83,95.11 L 455.54,92.74 L 456.59,87.80 L 457.06,85.30 L 457.65,80.10 L 458.00,72.00 L 458.00,69.64 L 457.77,65.14 L 457.62,62.93 L 457.09,58.69 L 456.78,56.60 L 455.92,52.59 L 455.44,50.61 L 454.25,46.79 L 453.61,44.90 L 452.06,41.23 L 451.24,39.41 L 449.33,35.85 L 448.33,34.09 L 446.05,30.61 L 442.20,25.45 L 441.64,24.75 L 440.27,23.21 L 439.55,22.41 L 437.94,20.73 L 436.28,19.03 L 432.63,15.59 L 430.81,13.92 L 427.41,11.07 L 426.61,10.42 L 425.18,9.36 L 423.40,8.20 L 422.95,7.95 L 422.34,7.53 L 422.08,7.34 L 421.85,7.04 L 421.78,6.90 L 421.89,6.72 L 421.98,6.65 L 422.40,6.59 L 422.64,6.57 M 409.74,245.16 L 409.58,245.26 L 409.61,245.90 L 410.18,247.50 L 410.49,248.18 L 411.09,249.12 L 411.39,249.52 L 411.94,249.88 L 412.20,249.99 L 412.67,249.76 L 412.89,249.58 L 413.25,248.75 L 413.37,248.41 L 413.09,247.51 L 412.09,246.28 L 411.46,245.80 L 410.56,245.28 L 410.17,245.10 M 194.90,247.56 L 194.94,247.49 L 195.48,246.82 M 195.61,246.66 L 195.70,246.54 L 195.80,246.41 M 196.02,246.16 L 196.11,246.05 L 196.37,245.79 M 197.10,245.07 L 197.11,245.06 L 197.15,245.02 M 464.93,227.61 L 464.38,228.02 L 465.09,227.47 M 497.98,186.80 L 494.46,193.09 L 492.65,196.19 L 488.70,202.08 L 486.68,204.97 L 482.30,210.45 L 480.06,213.14 L 475.26,218.21 L 472.81,220.69 L 469.76,223.40 L 473.49,220.00 L 475.87,217.54 L 480.55,212.51 L 482.73,209.85 L 487.01,204.44 L 488.99,201.60 L 492.85,195.82 L 494.61,192.80 L 498.03,186.68 M 504.70,171.52 L 504.13,172.95 L 504.87,171.01 M 510.72,147.22 L 510.39,149.71 L 509.48,154.63 L 508.98,157.07 L 507.75,161.91 L 507.09,164.32 L 505.56,169.02 L 506.04,167.48 L 507.64,161.99 L 508.35,158.94 L 509.06,155.82 L 509.40,154.15 L 510.08,150.72 L 510.42,148.87 L 510.86,146.11 M 163.84,157.24 L 167.48,156.02 L 167.49,156.02 M 230.76,145.28 L 226.60,145.46 L 218.39,146.11 L 214.31,146.47 L 206.25,147.49 L 202.24,148.04 L 194.35,149.42 L 190.42,150.15 L 182.68,151.90 L 178.83,152.82 L 171.25,154.92 L 167.80,155.93 L 171.25,154.92 L 178.83,152.82 L 182.68,151.90 L 190.41,150.15 L 194.34,149.42 L 202.24,148.04 L 206.25,147.49 L 214.30,146.47 L 218.39,146.11 L 226.59,145.46 L 230.75,145.28 L 239.12,145.00 L 239.12,145.00 M 260.48,147.75 L 260.01,149.57 L 260.19,148.78 L 260.58,147.25 L 261.03,145.70 M 418.33,136.05 L 417.50,136.64 L 416.45,137.60 L 416.04,138.03 L 416.00,138.21 L 416.00,137.19 L 420.21,134.81 M 453.85,51.68 L 454.53,53.87 L 455.44,58.09 L 455.55,58.71 L 455.44,58.09 L 454.53,53.85 L 453.84,51.66 L 453.68,51.16 M 409.74,4.35 L 412.35,5.34 L 417.42,7.81 L 419.92,9.13 L 424.70,12.19 L 427.04,13.80 L 431.45,17.40 L 433.61,19.26 L 437.59,23.33 L 439.53,25.42 L 437.60,23.34 L 433.61,19.27 L 431.45,17.41 L 427.03,13.81 L 424.68,12.20 L 419.90,9.13 L 417.40,7.82 L 412.33,5.34 L 409.72,4.35 L 404.43,2.52 L 401.74,1.88 L 404.44,2.52 M 398.37,315.11 L 398.90,314.47 L 399.90,313.12 L 400.35,312.27 L 400.95,311.03 L 400.38,312.23 L 399.92,313.10 L 398.91,314.46 L 398.39,315.10 L 397.19,316.18 L 395.08,317.73 L 397.18,316.18 M 502.80,176.30 L 499.57,183.50 L 502.91,176.04 Z" fill="rgba(54,99,184,1)"/>
<path d="M 267.15,0.00 L 271.05,0.00 L 278.48,0.00 L 282.14,0.00 L 289.12,0.00 L 292.55,0.00 L 299.09,0.01 L 302.31,0.01 L 308.42,0.01 L 311.43,0.01 L 317.13,0.02 L 319.94,0.02 L 325.25,0.03 L 327.86,0.03 L 332.79,0.04 L 335.21,0.05 L 339.78,0.06 L 342.02,0.06 L 346.24,0.07 L 348.31,0.08 L 352.20,0.10 L 354.10,0.10 L 357.67,0.12 L 359.42,0.13 L 362.69,0.15 L 364.29,0.16 L 367.28,0.19 L 370.19,0.21 L 375.23,0.27 L 377.63,0.30 L 381.72,0.37 L 383.66,0.41 L 386.94,0.50 L 388.48,0.54 L 391.06,0.65 L 392.27,0.70 L 394.27,0.83 L 395.21,0.89 L 396.76,1.04 L 397.49,1.12 L 398.71,1.28 L 401.74,1.88 L 404.43,2.52 L 409.72,4.35 L 412.33,5.34 L 417.40,7.82 L 419.90,9.13 L 424.68,12.20 L 427.03,13.81 L 431.45,17.41 L 433.61,19.27 L 437.60,23.34 L 439.54,25.43 L 443.03,29.91 L 444.70,32.20 L 447.61,37.02 L 451.26,44.57 L 451.78,45.86 L 452.68,48.26 L 453.11,49.43 L 453.84,51.66 L 454.53,53.85 L 455.44,58.09 L 455.82,60.23 L 456.23,64.87 L 456.30,66.08 L 456.38,68.70 L 456.39,73.00 L 456.38,74.27 L 456.34,76.48 L 456.32,77.54 L 456.23,79.40 L 456.14,81.19 L 455.76,84.20 L 455.52,85.68 L 454.76,88.71 L 454.53,89.51 L 453.99,91.26 L 453.03,94.23 L 452.33,96.30 L 450.63,100.38 L 449.74,102.40 L 447.67,106.36 L 446.59,108.32 L 444.19,112.09 L 442.95,113.95 L 440.27,117.49 L 438.89,119.23 L 435.97,122.48 L 434.47,124.06 L 431.35,126.97 L 429.76,128.37 L 426.48,130.88 L 421.43,134.13 L 416.20,137.08 L 416.24,135.75 L 416.25,134.41 L 416.27,131.64 L 416.26,130.11 L 416.24,126.94 L 416.22,125.19 L 416.16,121.59 L 416.13,119.61 L 416.05,115.54 L 416.00,113.32 L 415.90,108.84 L 415.84,106.13 L 415.80,104.91 L 415.73,102.54 L 415.69,101.47 L 415.61,99.42 L 415.57,98.50 L 415.36,95.09 L 415.21,93.75 L 414.87,91.27 L 414.64,90.30 L 414.12,88.52 L 413.78,87.81 L 413.03,86.49 L 412.55,85.92 L 411.50,84.83 L 410.85,84.29 L 409.46,83.19 L 408.61,82.56 L 407.61,81.90 L 406.87,81.54 L 406.37,81.40 L 405.27,81.14 L 404.50,81.04 L 402.80,80.86 L 401.64,80.79 L 400.41,80.73 L 399.71,80.71 L 398.24,80.66 L 397.40,80.64 L 395.64,80.61 L 394.64,80.59 L 392.57,80.57 L 391.41,80.56 L 388.99,80.55 L 387.64,80.55 L 384.84,80.54 L 383.29,80.54 L 380.08,80.54 L 378.32,80.54 L 374.67,80.54 L 372.67,80.55 L 367.22,80.56 L 363.89,80.57 L 362.36,80.57 L 359.41,80.59 L 358.07,80.60 L 355.46,80.62 L 354.27,80.63 L 351.98,80.66 L 350.94,80.68 L 348.92,80.72 L 348.01,80.74 L 344.60,80.85 L 343.19,80.92 L 340.56,81.09 L 339.44,81.20 L 337.31,81.44 L 336.35,81.59 L 332.70,82.29 L 330.64,82.80 L 323.88,84.73 L 319.48,86.22 L 317.35,87.07 L 313.12,88.83 L 311.08,89.81 L 307.02,91.83 L 305.07,92.93 L 301.20,95.20 L 299.34,96.43 L 295.66,98.94 L 293.90,100.28 L 290.42,103.03 L 288.76,104.49 L 285.50,107.46 L 283.95,109.02 L 280.90,112.21 L 279.46,113.88 L 276.64,117.28 L 275.32,119.05 L 272.73,122.64 L 271.53,124.51 L 269.19,128.29 L 268.11,130.25 L 266.02,134.21 L 265.08,136.26 L 263.25,140.39 L 262.44,142.52 L 260.88,146.82 L 260.20,149.03 L 259.62,151.06 L 260.48,147.75 L 261.22,145.00 L 239.12,145.00 L 230.75,145.28 L 226.59,145.46 L 218.39,146.11 L 214.30,146.47 L 206.25,147.49 L 202.24,148.04 L 194.34,149.42 L 190.41,150.15 L 182.68,151.90 L 178.83,152.82 L 171.25,154.92 L 167.48,156.02 L 160.07,158.50 L 156.39,159.78 L 149.14,162.61 L 145.54,164.08 L 138.46,167.28 L 134.94,168.92 L 128.03,172.48 L 124.60,174.30 L 117.86,178.22 L 114.51,180.23 L 107.95,184.50 L 104.69,186.69 L 98.31,191.32 L 95.14,193.69 L 88.93,198.68 L 85.85,201.22 L 79.83,206.57 L 71.00,215.00 L 66.40,219.60 L 57.88,229.13 L 53.73,233.95 L 46.12,243.93 L 42.43,248.97 L 35.72,259.41 L 32.48,264.70 L 26.65,275.62 L 23.85,281.14 L 18.92,292.56 L 16.56,298.34 L 12.49,310.27 L 10.57,316.30 L 7.37,328.77 L 3.54,348.07 L 3.33,349.35 L 2.87,351.76 L 2.64,352.93 L 2.17,354.94 L 1.94,355.88 L 1.52,357.27 L 0.99,358.41 L 0.94,358.46 L 0.86,358.10 L 0.82,357.84 L 0.74,356.87 L 0.70,356.30 L 0.63,354.70 L 0.60,353.83 L 0.54,351.59 L 0.51,350.39 L 0.45,347.51 L 0.43,345.99 L 0.38,342.45 L 0.36,340.60 L 0.32,336.39 L 0.30,334.20 L 0.27,329.31 L 0.26,326.78 L 0.23,321.19 L 0.22,318.32 L 0.21,312.03 L 0.20,308.80 L 0.19,301.79 L 0.19,298.20 L 0.19,290.47 L 0.19,286.51 L 0.19,278.04 L 0.20,273.72 L 0.21,264.50 L 0.22,259.80 L 0.24,249.82 L 0.28,233.98 L 0.29,229.69 L 0.31,221.53 L 0.32,217.52 L 0.34,209.90 L 0.35,206.16 L 0.37,199.08 L 0.38,195.60 L 0.40,189.01 L 0.41,185.78 L 0.43,179.68 L 0.44,176.69 L 0.46,171.04 L 0.47,168.28 L 0.49,163.08 L 0.50,160.53 L 0.53,155.75 L 0.54,153.41 L 0.58,149.02 L 0.59,146.88 L 0.63,142.87 L 0.65,140.91 L 0.69,137.26 L 0.71,135.47 L 0.76,132.15 L 0.79,130.53 L 0.85,127.52 L 0.88,126.05 L 0.95,123.33 L 1.02,120.68 L 1.19,116.16 L 1.28,114.02 L 1.50,110.38 L 1.61,108.66 L 1.89,105.74 L 2.03,104.35 L 2.37,101.97 L 2.54,100.84 L 2.95,98.83 L 3.37,96.89 L 4.46,93.40 L 4.75,92.50 L 5.41,90.59 L 6.51,87.38 L 7.45,84.59 L 9.60,79.14 L 10.71,76.44 L 13.22,71.19 L 14.51,68.60 L 17.35,63.56 L 18.80,61.07 L 21.96,56.25 L 23.58,53.88 L 27.04,49.30 L 28.81,47.04 L 32.56,42.72 L 34.47,40.59 L 38.50,36.52 L 40.55,34.53 L 44.84,30.74 L 47.01,28.88 L 51.54,25.39 L 53.83,23.68 L 58.59,20.49 L 61.00,18.93 L 65.97,16.05 L 68.48,14.65 L 73.65,12.11 L 76.26,10.88 L 81.61,8.67 L 84.31,7.61 L 89.82,5.76 L 92.60,4.89 L 98.27,3.41 L 106.93,1.62 L 107.97,1.44 L 110.64,1.13 L 111.39,1.06 L 113.15,0.93 L 114.09,0.87 L 116.29,0.76 L 117.45,0.70 L 120.19,0.61 L 121.64,0.56 L 125.01,0.47 L 126.78,0.43 L 130.88,0.36 L 133.04,0.33 L 137.96,0.27 L 140.54,0.24 L 146.38,0.19 L 149.43,0.17 L 156.30,0.13 L 158.08,0.12 L 161.86,0.11 L 163.78,0.10 L 167.84,0.09 L 169.91,0.08 L 174.27,0.07 L 176.49,0.06 L 181.17,0.05 L 183.54,0.05 L 188.54,0.04 L 191.08,0.03 L 196.41,0.03 L 199.12,0.02 L 204.80,0.02 L 207.68,0.01 L 213.72,0.01 L 216.79,0.01 L 223.19,0.01 L 226.45,0.00 L 233.24,0.00 L 236.69,0.00 L 243.87,0.00 L 255.11,0.00 L 259.25,0.00 M 257.04,169.13 L 256.88,172.78 L 256.82,174.93 L 256.68,179.46 L 256.62,182.09 L 256.57,184.79 L 256.54,186.24 L 256.48,189.20 L 256.45,190.78 L 256.40,194.03 L 256.38,195.76 L 256.35,197.62 L 256.39,194.47 L 256.42,192.36 L 256.48,188.51 L 256.51,186.65 L 256.58,183.26 L 256.61,181.61 L 256.68,178.63 L 256.72,177.18 L 256.80,174.56 L 256.84,173.29 L 256.93,170.99 L 257.03,168.76 L 257.11,167.65 M 406.44,158.58 L 405.95,158.73 L 404.67,158.97 L 403.95,159.09 L 402.04,159.27 L 400.98,159.35 L 398.24,159.49 L 397.49,159.53 L 395.80,159.59 L 394.93,159.62 L 392.96,159.67 L 391.94,159.70 L 389.66,159.75 L 388.48,159.78 L 385.88,159.83 L 384.53,159.86 L 381.56,159.91 L 376.68,160.00 L 381.54,159.91 L 384.50,159.86 L 385.84,159.83 L 388.44,159.78 L 389.61,159.76 L 391.88,159.70 L 392.90,159.67 L 394.87,159.62 L 395.75,159.59 L 397.43,159.53 L 398.18,159.49 L 400.93,159.36 L 401.98,159.27 L 403.90,159.09 L 404.62,158.98 L 405.91,158.74 L 406.40,158.59 L 407.69,158.04 M 408.68,157.41 L 408.01,157.90 L 407.97,157.92 L 408.62,157.44 L 408.93,157.19 M 413.67,152.30 L 413.42,152.62 L 414.03,151.59 M 416.00,144.53 L 415.58,147.35 L 415.29,148.70 L 414.27,151.13 L 414.18,151.29 L 414.53,150.34 L 415.23,148.03 L 415.48,146.57 L 415.71,145.04 L 415.80,144.18 L 415.96,142.40 L 416.00,141.82 Z" fill="rgba(79,124,209,1)"/>
<path d="M 336.00,423.68 L 336.01,427.75 L 336.01,435.32 L 336.02,439.01 L 336.03,445.83 L 336.04,449.16 L 336.06,455.28 L 336.07,458.26 L 336.09,463.71 L 336.11,466.35 L 336.14,471.16 L 336.15,473.49 L 336.19,477.68 L 336.21,479.71 L 336.26,483.33 L 336.28,485.08 L 336.33,488.16 L 336.36,489.63 L 336.42,492.20 L 336.45,493.42 L 336.52,495.51 L 336.56,496.50 L 336.64,498.14 L 336.68,498.90 L 336.77,500.13 L 336.82,500.69 L 336.91,501.54 L 336.96,501.92 L 337.07,502.41 L 337.25,502.79 L 337.39,502.90 L 338.01,503.21 L 338.38,503.38 L 339.45,503.80 L 340.04,504.02 L 341.54,504.53 L 342.34,504.80 L 344.26,505.41 L 345.27,505.73 L 347.59,506.42 L 348.80,506.79 L 351.51,507.57 L 352.91,507.97 L 355.98,508.84 L 361.00,510.22 L 365.50,511.45 L 361.86,511.78 L 361.07,511.85 L 359.20,511.71 L 358.67,511.64 L 357.41,511.40 L 356.73,511.26 L 355.08,510.86 L 354.20,510.63 L 352.07,510.03 L 350.93,509.71 L 348.20,508.89 L 346.75,508.44 L 343.31,507.38 L 337.25,505.46 L 337.04,505.39 L 336.70,505.50 L 336.55,505.60 L 336.31,506.03 L 336.21,506.28 L 336.08,507.04 L 336.01,508.38 L 336.01,507.25 L 336.01,506.29 L 336.01,505.20 L 336.01,504.43 L 336.01,502.76 L 336.01,501.72 L 336.01,499.51 L 336.01,498.21 L 336.01,495.48 L 336.01,493.94 L 336.01,490.73 L 336.01,488.96 L 336.01,485.31 L 336.01,483.33 L 336.01,479.27 L 336.01,477.09 L 336.01,472.65 L 336.01,470.30 L 336.01,465.51 L 336.01,462.99 L 336.01,457.89 L 336.01,455.23 L 336.01,449.84 L 336.01,447.06 L 336.01,435.67 L 336.00,429.68 L 336.00,421.03 M 371.57,320.00 L 372.89,319.99 L 375.44,319.99 L 376.59,319.98 L 378.80,319.97 L 379.78,319.96 L 381.68,319.94 L 382.53,319.92 L 384.15,319.89 L 384.86,319.87 L 387.47,319.77 L 388.47,319.70 L 390.27,319.54 L 390.95,319.43 L 392.17,319.18 L 392.64,319.02 L 394.11,318.35 L 392.64,319.02 L 392.17,319.18 L 390.95,319.43 L 390.27,319.54 L 388.47,319.70 L 387.47,319.77 L 384.86,319.87 L 384.15,319.89 L 382.53,319.92 L 381.69,319.94 L 379.79,319.96 L 378.80,319.97 L 376.59,319.98 L 375.45,319.99 L 372.90,319.99 L 371.58,320.00 L 368.67,320.00 L 363.85,320.00 L 363.84,320.00 L 368.66,320.00 M 511.85,135.53 L 511.90,135.74 L 511.92,136.51 L 511.92,136.95 L 511.86,138.14 L 511.82,138.79 L 511.67,140.31 L 511.59,141.11 L 511.36,142.90 L 510.42,148.87 L 510.08,150.72 L 509.40,154.15 L 509.06,155.82 L 508.35,158.94 L 507.64,161.99 L 506.04,167.48 L 505.20,170.17 L 503.20,175.37 L 499.57,183.50 L 498.03,186.68 L 494.61,192.80 L 492.85,195.82 L 488.99,201.60 L 487.01,204.44 L 482.73,209.85 L 480.55,212.51 L 475.87,217.54 L 473.49,220.00 L 468.44,224.62 L 465.86,226.87 L 460.46,231.06 L 457.71,233.10 L 451.97,236.83 L 443.00,241.91 L 439.54,243.68 L 432.72,246.75 L 431.06,247.47 L 427.90,248.73 L 426.35,249.33 L 423.51,250.34 L 422.13,250.81 L 419.71,251.53 L 418.56,251.85 L 416.67,252.24 L 415.80,252.39 L 414.54,252.41 L 414.01,252.38 L 413.50,252.00 L 413.33,251.72 L 413.44,251.15 L 414.19,250.55 L 414.37,250.49 L 415.45,250.13 L 416.09,249.92 L 417.90,249.32 L 418.88,249.00 L 421.21,248.24 L 425.00,247.00 L 427.27,246.25 L 431.72,244.55 L 433.93,243.67 L 438.26,241.68 L 440.41,240.66 L 444.62,238.38 L 446.72,237.20 L 450.84,234.62 L 452.88,233.30 L 456.91,230.41 L 458.92,228.93 L 462.87,225.73 L 464.83,224.09 L 468.72,220.57 L 474.48,214.92 L 476.85,212.47 L 481.23,207.45 L 483.36,204.92 L 487.25,199.73 L 489.13,197.11 L 492.53,191.73 L 494.17,189.02 L 497.08,183.45 L 498.48,180.65 L 500.92,174.88 L 502.08,171.97 L 504.04,165.99 L 504.97,162.97 L 506.46,156.78 L 508.18,147.22 L 508.35,146.02 L 508.71,143.80 L 508.89,142.73 L 509.24,140.92 L 509.41,140.08 L 509.71,138.88 L 510.06,138.00 L 510.23,137.86 L 510.68,137.21 L 511.27,136.00 L 511.42,135.61 L 511.64,135.32 L 511.73,135.25 M 336.00,410.87 L 335.98,320.00 L 336.00,320.00 Z" fill="rgba(51,96,181,1)"/>
<path d="M 256.00,416.00 L 256.00,320.00 L 230.46,320.00 L 228.65,320.00 L 225.34,319.99 L 223.73,319.99 L 220.80,319.97 L 219.38,319.95 L 216.81,319.91 L 215.57,319.88 L 213.32,319.81 L 212.23,319.77 L 210.28,319.67 L 209.34,319.61 L 207.66,319.47 L 206.04,319.32 L 203.49,318.86 L 202.31,318.60 L 200.47,317.91 L 199.61,317.53 L 198.25,316.55 L 197.60,316.01 L 196.49,314.69 L 194.85,312.28 L 194.27,311.35 L 193.50,309.62 L 193.34,309.12 L 193.09,307.85 L 192.97,307.15 L 192.80,305.31 L 192.73,304.29 L 192.63,301.61 L 192.61,300.88 L 192.58,299.22 L 192.56,298.36 L 192.54,296.41 L 192.53,295.39 L 192.52,293.12 L 192.51,291.94 L 192.51,289.32 L 192.50,287.97 L 192.50,284.97 L 192.50,280.00 L 192.50,278.33 L 192.50,275.27 L 192.50,273.79 L 192.51,271.09 L 192.51,269.78 L 192.52,267.41 L 192.53,266.26 L 192.55,264.19 L 192.56,263.19 L 192.59,261.40 L 192.60,260.54 L 192.64,259.01 L 192.68,257.53 L 192.80,255.24 L 192.86,254.18 L 193.04,252.57 L 193.14,251.83 L 193.40,250.71 L 194.50,248.18 L 194.77,247.72 L 195.55,246.72 L 195.97,246.21 L 196.94,245.20 L 200.00,242.68 L 200.83,242.16 L 202.54,241.46 L 203.04,241.30 L 204.29,241.06 L 204.98,240.95 L 206.75,240.77 L 207.72,240.69 L 210.22,240.56 L 211.58,240.50 L 215.00,240.41 L 215.92,240.39 L 217.96,240.35 L 219.02,240.33 L 221.37,240.30 L 222.58,240.28 L 225.25,240.24 L 229.64,240.19 L 255.78,239.88 L 256.30,201.19 L 256.32,199.30 L 256.38,195.76 L 256.40,194.03 L 256.45,190.78 L 256.48,189.20 L 256.54,186.24 L 256.57,184.79 L 256.62,182.09 L 256.68,179.46 L 256.82,174.93 L 256.88,172.78 L 257.04,169.13 L 257.12,167.39 L 257.30,164.49 L 257.39,163.11 L 257.60,160.83 L 257.71,159.76 L 257.97,157.99 L 258.39,155.77 L 258.92,153.48 L 260.20,149.03 L 260.88,146.82 L 262.44,142.52 L 263.25,140.39 L 265.08,136.26 L 266.02,134.21 L 268.11,130.25 L 269.19,128.29 L 271.53,124.51 L 272.73,122.64 L 275.32,119.05 L 276.64,117.28 L 279.46,113.88 L 280.90,112.21 L 283.95,109.02 L 285.50,107.46 L 288.76,104.49 L 290.42,103.03 L 293.90,100.28 L 295.66,98.94 L 299.34,96.43 L 301.20,95.20 L 305.07,92.93 L 307.02,91.83 L 311.08,89.81 L 313.12,88.83 L 317.35,87.07 L 319.48,86.22 L 323.88,84.73 L 330.64,82.80 L 332.70,82.29 L 336.35,81.59 L 337.31,81.44 L 339.44,81.20 L 340.56,81.09 L 343.19,80.92 L 344.60,80.85 L 348.01,80.74 L 348.92,80.72 L 350.94,80.68 L 351.98,80.66 L 354.27,80.63 L 355.46,80.62 L 358.07,80.60 L 359.41,80.59 L 362.36,80.57 L 363.89,80.57 L 367.22,80.56 L 372.67,80.55 L 374.67,80.54 L 378.32,80.54 L 380.08,80.54 L 383.29,80.54 L 384.84,80.54 L 387.64,80.55 L 388.99,80.55 L 391.41,80.56 L 392.57,80.57 L 394.64,80.59 L 395.64,80.61 L 397.40,80.64 L 398.24,80.66 L 399.71,80.71 L 400.41,80.73 L 401.64,80.79 L 402.80,80.86 L 404.50,81.04 L 405.27,81.14 L 406.37,81.40 L 406.87,81.54 L 407.61,81.90 L 408.61,82.56 L 409.46,83.19 L 410.85,84.29 L 411.50,84.83 L 412.55,85.92 L 413.03,86.49 L 413.78,87.81 L 414.12,88.52 L 414.64,90.30 L 414.87,91.27 L 415.21,93.75 L 415.36,95.09 L 415.57,98.50 L 415.61,99.42 L 415.69,101.47 L 415.73,102.54 L 415.80,104.91 L 415.84,106.13 L 415.90,108.84 L 416.00,113.32 L 416.05,115.54 L 416.13,119.61 L 416.16,121.59 L 416.22,125.19 L 416.24,126.94 L 416.26,130.11 L 416.27,131.64 L 416.25,134.41 L 416.24,135.75 L 416.17,138.16 L 416.14,139.32 L 416.03,141.40 L 415.96,142.40 L 415.80,144.18 L 415.71,145.04 L 415.48,146.57 L 415.23,148.03 L 414.53,150.34 L 414.14,151.41 L 413.12,153.13 L 412.56,153.94 L 411.17,155.35 L 408.62,157.44 L 407.97,157.92 L 406.40,158.59 L 405.91,158.74 L 404.62,158.98 L 403.90,159.09 L 401.98,159.27 L 400.93,159.36 L 398.18,159.49 L 397.43,159.53 L 395.75,159.59 L 394.87,159.62 L 392.90,159.67 L 391.88,159.70 L 389.61,159.76 L 388.44,159.78 L 385.84,159.83 L 384.50,159.86 L 381.54,159.91 L 376.68,160.00 L 374.94,160.03 L 371.77,160.09 L 370.23,160.11 L 367.43,160.17 L 366.08,160.19 L 363.63,160.25 L 362.45,160.27 L 360.32,160.33 L 359.29,160.36 L 357.46,160.41 L 356.57,160.44 L 355.01,160.51 L 353.50,160.58 L 351.17,160.74 L 350.10,160.83 L 348.48,161.05 L 347.73,161.16 L 346.60,161.45 L 344.00,162.68 L 343.04,163.28 L 340.94,165.20 L 340.44,165.69 L 339.55,166.72 L 338.50,168.18 L 338.27,168.57 L 337.87,169.37 L 337.69,169.79 L 337.39,170.84 L 337.25,171.42 L 337.02,172.95 L 336.92,173.80 L 336.75,176.06 L 336.71,176.68 L 336.65,178.10 L 336.61,178.84 L 336.56,180.53 L 336.53,181.41 L 336.48,183.38 L 336.46,184.41 L 336.41,186.72 L 336.39,187.91 L 336.36,190.57 L 336.34,191.94 L 336.30,194.98 L 336.29,196.55 L 336.25,200.01 L 336.20,205.69 L 335.90,239.88 L 369.28,240.19 L 402.66,240.50 L 406.24,243.23 L 406.78,243.64 L 407.83,244.68 L 408.35,245.22 L 409.31,246.45 L 411.55,250.48 L 413.27,254.99 L 407.88,282.21 L 407.53,284.01 L 406.87,287.32 L 406.55,288.93 L 405.95,291.86 L 405.66,293.28 L 405.11,295.86 L 404.85,297.10 L 404.35,299.36 L 404.10,300.45 L 403.63,302.41 L 403.40,303.35 L 402.96,305.04 L 402.52,306.67 L 401.67,309.23 L 401.24,310.42 L 400.35,312.27 L 399.90,313.12 L 398.90,314.47 L 398.37,315.11 L 397.18,316.18 L 395.08,317.73 L 394.25,318.28 L 392.64,319.02 L 392.17,319.18 L 390.95,319.43 L 390.27,319.54 L 388.47,319.70 L 387.47,319.77 L 384.86,319.87 L 384.15,319.89 L 382.53,319.92 L 381.68,319.94 L 379.78,319.96 L 378.80,319.97 L 376.59,319.98 L 375.44,319.99 L 372.89,319.99 L 371.57,320.00 L 368.66,320.00 L 363.84,320.00 L 335.98,320.00 L 336.00,411.25 L 336.00,417.52 L 336.00,429.68 L 336.01,435.67 L 336.01,447.06 L 336.01,449.84 L 336.01,455.23 L 336.01,457.89 L 336.01,462.99 L 336.01,465.51 L 336.01,470.30 L 336.01,472.65 L 336.01,477.09 L 336.01,479.27 L 336.01,483.33 L 336.01,485.31 L 336.01,488.96 L 336.01,490.73 L 336.01,493.94 L 336.01,495.48 L 336.01,498.21 L 336.01,499.51 L 336.01,501.72 L 336.01,502.76 L 336.01,504.43 L 336.01,505.20 L 336.01,506.29 L 336.01,507.25 L 336.00,512.00 L 296.00,512.00 L 256.00,512.00 L 256.00,416.00 Z" fill="rgba(254,254,254,1)"/>
</g>
</svg>