<svg xmlns="http://www.w3.org/2000/svg" width="512" height="512" viewBox="0 0 512 512">
<g>
<path d="M 167.89,288.67 L 168.50,289.71 L 168.91,290.48 L 169.78,292.15 L 170.28,293.16 L 171.32,295.28 L 171.86,296.44 L 175.59,303.84 L 178.13,308.24 L 179.49,310.29 L 182.30,314.32 L 183.89,316.30 L 187.20,320.29 L 189.12,322.39 L 194.48,327.80 L 198.25,331.19 L 200.24,332.78 L 204.26,335.87 L 206.37,337.31 L 210.62,340.10 L 212.83,341.37 L 217.30,343.84 L 219.61,344.96 L 224.27,347.10 L 226.67,348.04 L 231.50,349.84 L 233.98,350.61 L 238.96,352.05 L 241.50,352.64 L 246.15,353.49 L 249.61,353.92 L 251.46,354.07 L 259.16,354.50 L 263.13,354.46 L 267.09,354.37 L 269.02,354.27 L 272.84,354.01 L 274.65,353.82 L 278.18,353.40 L 279.78,353.13 L 282.86,352.54 L 284.19,352.18 L 291.39,350.01 L 296.15,348.35 L 298.42,347.45 L 302.85,345.63 L 304.83,344.69 L 308.62,342.81 L 310.18,341.90 L 314.90,339.11 L 339.87,358.46 L 349.69,366.04 L 352.70,368.35 L 354.09,369.42 L 356.79,371.48 L 357.99,372.40 L 360.31,374.16 L 361.30,374.91 L 363.15,376.31 L 363.89,376.85 L 365.22,377.84 L 365.66,378.16 L 366.39,378.68 L 366.51,378.74 L 367.12,379.41 L 367.04,380.00 L 366.70,380.43 L 366.31,380.89 L 366.03,381.17 L 365.41,381.75 L 365.01,382.09 L 364.16,382.82 L 363.63,383.25 L 362.51,384.15 L 361.84,384.68 L 352.00,391.91 L 345.33,396.30 L 341.93,398.28 L 335.08,402.11 L 331.59,403.81 L 324.56,407.07 L 320.97,408.49 L 313.74,411.20 L 310.04,412.35 L 302.60,414.50 L 298.80,415.37 L 291.13,416.99 L 287.20,417.59 L 279.29,418.66 L 275.24,419.00 L 268.51,419.49 L 265.48,419.65 L 262.56,419.78 L 261.37,419.82 L 260.23,419.85 L 259.74,419.85 L 258.84,419.86 L 258.50,419.85 L 249.62,419.37 L 243.61,418.80 L 240.59,418.38 L 234.53,417.48 L 231.50,416.91 L 225.46,415.68 L 222.46,414.96 L 216.48,413.43 L 213.53,412.56 L 207.68,410.75 L 204.83,409.74 L 199.17,407.66 L 196.43,406.52 L 191.02,404.18 L 188.42,402.92 L 181.68,399.38 L 177.09,396.73 L 174.77,395.28 L 170.14,392.31 L 167.85,390.73 L 163.28,387.51 L 161.04,385.83 L 156.62,382.43 L 154.50,380.69 L 150.33,377.19 L 148.37,375.42 L 144.54,371.88 L 142.78,370.12 L 139.39,366.62 L 137.89,364.91 L 133.65,359.84 L 130.78,356.19 L 129.37,354.30 L 126.58,350.49 L 125.26,348.61 L 122.68,344.86 L 121.52,343.08 L 119.29,339.61 L 118.36,338.05 L 116.63,335.06 L 116.00,333.82 L 115.40,332.62 L 115.17,332.10 L 114.76,331.12 L 114.63,330.71 L 114.41,329.96 L 114.38,329.68 L 114.38,329.19 L 114.47,329.05 L 115.17,328.40 L 116.18,327.55 L 116.92,326.95 L 118.54,325.64 L 119.55,324.83 L 121.70,323.12 L 122.93,322.15 L 125.49,320.12 L 126.90,319.01 L 129.79,316.75 L 131.32,315.55 L 137.64,310.62 L 140.90,308.09 L 147.42,303.04 L 150.48,300.68 L 153.49,298.36 L 154.90,297.29 L 157.64,295.19 L 158.88,294.25 L 161.25,292.45 L 162.26,291.69 L 164.16,290.26 L 164.90,289.72 L 166.24,288.74 L 166.66,288.45 L 167.32,288.00 L 167.37,288.00 Z" fill="rgba(0,180,80,1)"/>
<path d="M 279.40,418.65 L 279.29,418.66 L 282.06,418.28 M 291.59,416.90 L 291.41,416.93 L 294.57,416.26 M 355.46,389.62 L 352.36,391.80 L 346.07,396.04 L 342.78,397.98 L 336.13,401.74 L 332.67,403.44 L 325.68,406.70 L 322.07,408.15 L 314.76,410.90 L 310.99,412.08 L 303.38,414.31 L 302.83,414.44 L 310.04,412.35 L 313.74,411.20 L 320.97,408.49 L 324.56,407.07 L 331.59,403.81 L 335.08,402.11 L 341.93,398.28 L 345.33,396.30 L 352.00,391.91 L 359.68,386.26 M 408.05,229.25 L 411.01,231.87 L 412.88,234.04 L 413.45,235.00 L 414.57,237.48 L 414.83,238.47 L 414.93,239.09 L 415.12,240.41 L 415.18,241.25 L 415.31,243.06 L 415.35,244.20 L 415.42,246.64 L 415.44,248.16 L 415.48,251.38 L 415.48,253.35 L 415.49,255.37 L 415.49,256.48 L 415.49,258.76 L 415.49,260.00 L 415.45,267.90 L 415.37,272.50 L 415.30,274.55 L 415.13,278.51 L 415.01,280.31 L 414.72,283.83 L 414.53,285.51 L 413.60,292.07 L 412.86,295.59 L 412.07,299.18 L 411.59,301.14 L 410.58,305.21 L 409.98,307.50 L 406.47,319.12 L 403.73,326.62 L 402.17,330.24 L 398.92,337.38 L 397.11,340.82 L 393.36,347.60 L 391.31,350.85 L 387.09,357.24 L 384.81,360.29 L 380.14,366.29 L 377.64,369.14 L 372.53,374.72 L 369.82,377.35 L 367.05,379.94 L 367.12,379.41 L 366.51,378.74 L 366.39,378.68 L 365.66,378.16 L 365.22,377.84 L 363.89,376.85 L 363.15,376.31 L 361.30,374.91 L 360.31,374.16 L 357.99,372.40 L 356.79,371.48 L 354.09,369.42 L 352.70,368.35 L 349.69,366.04 L 339.87,358.46 L 314.90,339.11 L 310.18,341.90 L 308.62,342.81 L 304.83,344.69 L 302.85,345.63 L 301.53,346.17 L 304.22,344.98 L 306.63,343.70 L 311.39,341.05 L 313.66,339.56 L 318.11,336.50 L 320.21,334.82 L 324.32,331.35 L 326.23,329.48 L 329.95,325.63 L 331.65,323.57 L 334.94,319.35 L 336.41,317.10 L 339.23,312.53 L 340.44,310.11 L 342.81,304.90 L 344.29,301.18 L 344.92,299.40 L 346.06,295.95 L 346.42,294.55 L 346.75,293.22 L 346.85,292.67 L 347.00,291.67 L 347.00,291.32 L 346.64,290.96 L 346.00,290.75 L 345.44,290.66 L 344.15,290.50 L 343.21,290.43 L 341.15,290.30 L 339.78,290.25 L 336.81,290.16 L 334.95,290.13 L 333.02,290.10 L 331.95,290.08 L 329.75,290.06 L 328.54,290.04 L 326.05,290.02 L 324.69,290.02 L 321.89,290.00 L 320.37,290.00 L 317.25,289.99 L 315.56,289.98 L 312.11,289.98 L 310.25,289.98 L 304.29,289.97 L 300.66,289.97 L 299.00,289.96 L 295.78,289.95 L 294.32,289.94 L 291.49,289.93 L 290.22,289.91 L 287.75,289.89 L 286.64,289.88 L 284.50,289.84 L 283.54,289.82 L 281.71,289.78 L 280.89,289.75 L 279.32,289.70 L 278.63,289.67 L 276.09,289.53 L 275.12,289.44 L 273.34,289.24 L 272.65,289.11 L 271.39,288.84 L 270.87,288.67 L 269.89,288.32 L 269.42,288.10 L 266.37,286.48 L 264.65,285.26 L 263.94,284.55 L 262.62,283.03 L 262.09,282.12 L 261.11,280.17 L 260.74,278.99 L 260.07,276.48 L 259.83,274.97 L 259.43,271.77 L 259.31,269.86 L 259.13,265.84 L 259.11,263.47 L 259.10,261.04 L 259.11,259.73 L 259.14,257.04 L 259.17,255.60 L 259.34,249.16 L 259.50,245.55 L 259.62,244.04 L 259.88,241.21 L 260.06,240.04 L 260.46,237.84 L 260.73,236.92 L 261.32,235.22 L 261.69,234.50 L 262.50,233.15 L 263.01,232.56 L 264.09,231.41 L 264.74,230.88 L 266.13,229.81 L 266.95,229.25 L 270.30,227.00 L 337.50,227.00 L 404.70,227.00 M 224.27,347.05 L 232.55,350.13 L 238.15,351.77 L 240.99,352.39 L 246.67,353.51 L 249.52,353.87 L 251.51,354.07 L 251.46,354.07 L 249.61,353.92 L 246.15,353.49 L 241.50,352.64 L 238.96,352.05 L 233.98,350.61 L 231.50,349.84 L 226.67,348.04 L 224.27,347.10 L 223.00,346.51 M 284.19,352.18 L 282.86,352.54 L 279.78,353.13 L 278.18,353.40 L 274.65,353.82 L 273.69,353.93 L 275.06,353.74 L 280.62,352.86 L 283.35,352.25 L 286.89,351.37 M 220.02,345.14 L 219.61,344.96 L 217.30,343.84 L 215.87,343.05 M 211.20,340.43 L 210.62,340.10 L 209.85,339.59 M 179.56,310.33 L 181.34,312.85 L 183.99,316.42 L 183.89,316.30 L 182.30,314.32 L 179.49,310.29 L 178.13,308.24 L 175.59,303.84 L 171.86,296.44 L 176.30,304.96 Z" fill="rgba(30,120,254,1)"/>
<path d="M 113.73,181.15 L 113.94,181.46 L 113.89,181.79 L 113.66,182.58 L 113.37,183.23 L 112.66,184.72 L 112.12,185.79 L 110.65,188.94 L 109.60,191.40 L 109.06,192.77 L 106.84,198.60 L 105.75,201.77 L 103.62,208.21 L 102.70,211.33 L 101.82,214.41 L 101.43,215.86 L 100.70,218.70 L 100.41,219.99 L 98.30,231.18 L 97.29,238.72 L 96.98,242.51 L 96.50,250.12 L 96.46,253.93 L 96.51,261.57 L 96.74,265.38 L 97.31,273.01 L 97.80,276.81 L 98.90,284.39 L 99.64,288.15 L 101.27,295.65 L 102.27,299.36 L 104.41,306.74 L 105.68,310.37 L 107.94,316.55 L 109.49,320.46 L 110.21,322.16 L 110.92,323.80 L 111.25,324.53 L 111.88,325.91 L 112.17,326.49 L 112.71,327.55 L 112.94,327.94 L 113.36,328.63 L 113.51,328.80 L 114.11,328.44 L 115.04,327.79 L 115.73,327.29 L 117.28,326.15 L 118.26,325.42 L 120.36,323.85 L 121.59,322.93 L 124.16,320.99 L 125.60,319.89 L 128.57,317.63 L 130.19,316.40 L 132.39,314.71 L 131.32,315.55 L 129.79,316.75 L 126.90,319.01 L 125.49,320.12 L 122.93,322.15 L 121.70,323.12 L 119.55,324.83 L 118.54,325.64 L 116.92,326.95 L 116.18,327.55 L 115.17,328.40 L 114.47,329.05 L 114.38,329.19 L 114.38,329.68 L 114.41,329.96 L 114.63,330.71 L 114.76,331.12 L 115.17,332.10 L 115.40,332.62 L 116.00,333.82 L 116.63,335.06 L 118.36,338.05 L 119.29,339.61 L 121.52,343.08 L 122.68,344.86 L 125.26,348.61 L 126.58,350.49 L 129.37,354.30 L 130.78,356.19 L 133.65,359.84 L 137.89,364.91 L 139.39,366.62 L 142.78,370.12 L 144.54,371.88 L 148.37,375.42 L 150.33,377.19 L 154.50,380.69 L 156.62,382.43 L 161.04,385.83 L 163.28,387.51 L 167.85,390.73 L 170.14,392.31 L 174.77,395.28 L 177.09,396.73 L 181.68,399.38 L 188.42,402.92 L 191.02,404.18 L 196.43,406.52 L 199.17,407.66 L 204.83,409.74 L 207.68,410.75 L 213.53,412.56 L 216.48,413.43 L 222.46,414.96 L 225.46,415.68 L 231.50,416.91 L 234.53,417.48 L 240.59,418.38 L 243.61,418.80 L 249.62,419.37 L 258.50,419.85 L 258.84,419.86 L 259.74,419.85 L 260.23,419.85 L 261.37,419.82 L 262.56,419.78 L 265.48,419.65 L 268.51,419.49 L 272.52,419.20 L 268.56,419.53 L 265.54,419.79 L 264.32,419.91 L 263.17,420.02 L 262.68,420.07 L 261.77,420.16 L 261.42,420.20 L 260.80,420.27 L 260.61,420.30 L 260.32,420.35 L 260.30,420.36 L 260.40,421.11 L 260.70,422.14 L 260.94,422.87 L 261.48,424.45 L 261.83,425.39 L 262.56,427.35 L 262.97,428.42 L 264.72,432.89 L 265.62,435.06 L 266.52,437.19 L 266.94,438.16 L 267.77,440.02 L 268.14,440.79 L 271.65,447.39 L 274.40,451.91 L 275.94,454.18 L 279.13,458.73 L 280.86,460.99 L 284.41,465.47 L 286.28,467.66 L 290.10,471.97 L 292.07,474.03 L 296.06,478.08 L 298.09,479.96 L 302.17,483.63 L 304.21,485.28 L 308.28,488.46 L 310.29,489.84 L 315.40,493.13 L 319.05,495.29 L 320.96,496.33 L 328.78,500.40 L 332.75,502.17 L 336.72,503.90 L 338.66,504.67 L 342.51,506.15 L 344.36,506.78 L 347.99,507.97 L 349.68,508.43 L 352.98,509.28 L 354.46,509.56 L 357.14,510.29 L 357.83,510.58 L 358.08,510.72 L 358.49,510.99 L 358.57,511.11 L 358.79,511.26 L 359.08,511.32 L 359.77,511.45 L 360.27,511.50 L 360.32,511.51 L 355.02,511.54 L 351.69,511.56 L 344.67,511.59 L 341.10,511.61 L 333.64,511.64 L 329.86,511.66 L 322.02,511.68 L 318.06,511.70 L 309.91,511.72 L 301.69,511.75 L 284.60,511.78 L 275.99,511.80 L 258.49,511.83 L 249.75,511.84 L 232.37,511.85 L 223.74,511.85 L 206.99,511.84 L 202.87,511.84 L 194.83,511.83 L 190.85,511.83 L 183.14,511.82 L 179.34,511.81 L 172.03,511.80 L 168.44,511.79 L 161.60,511.77 L 158.24,511.76 L 151.94,511.73 L 148.85,511.72 L 143.14,511.69 L 140.36,511.68 L 135.31,511.65 L 132.87,511.63 L 128.53,511.59 L 126.46,511.57 L 122.92,511.53 L 121.25,511.51 L 118.56,511.46 L 117.33,511.44 L 115.56,511.39 L 114.79,511.36 L 114.00,511.31 L 110.99,510.98 L 105.04,510.01 L 102.08,509.47 L 96.26,508.06 L 93.36,507.31 L 87.67,505.50 L 84.84,504.54 L 79.30,502.33 L 76.55,501.18 L 71.19,498.59 L 68.54,497.24 L 63.37,494.29 L 60.81,492.77 L 55.86,489.46 L 53.41,487.77 L 48.70,484.13 L 46.37,482.27 L 41.90,478.31 L 39.70,476.29 L 35.51,472.03 L 33.45,469.86 L 29.55,465.31 L 27.64,463.01 L 24.05,458.19 L 22.30,455.74 L 19.04,450.67 L 17.45,448.10 L 14.55,442.78 L 13.14,440.09 L 10.60,434.55 L 7.23,426.00 L 6.78,424.73 L 5.98,422.51 L 5.58,421.43 L 4.88,419.45 L 4.21,417.50 L 3.16,413.47 L 2.91,412.38 L 2.49,409.94 L 2.29,408.65 L 1.95,405.66 L 1.79,404.07 L 1.52,400.33 L 1.39,398.34 L 1.18,393.65 L 1.13,392.41 L 1.04,389.71 L 1.00,388.33 L 0.92,385.33 L 0.89,383.79 L 0.82,380.46 L 0.79,378.75 L 0.74,375.06 L 0.71,373.17 L 0.67,369.11 L 0.65,367.02 L 0.62,362.56 L 0.60,360.27 L 0.58,355.37 L 0.56,352.86 L 0.54,347.51 L 0.53,344.77 L 0.53,343.96 L 0.55,345.22 L 0.57,346.76 L 0.61,349.65 L 0.64,350.82 L 0.68,352.98 L 0.71,353.76 L 0.76,355.13 L 0.79,355.51 L 0.84,356.05 L 0.87,356.00 L 1.30,354.79 L 1.64,353.45 L 1.83,352.59 L 2.21,350.76 L 2.40,349.72 L 2.77,347.60 L 2.93,346.50 L 4.16,339.49 L 5.16,334.60 L 5.74,332.08 L 8.30,321.80 L 9.85,316.56 L 13.12,306.07 L 14.95,300.98 L 16.81,295.94 L 17.77,293.50 L 19.73,288.69 L 20.73,286.40 L 25.39,276.59 L 28.88,269.93 L 30.80,266.58 L 34.75,259.88 L 36.86,256.55 L 41.18,249.91 L 43.46,246.66 L 48.07,240.20 L 50.46,237.07 L 55.28,230.91 L 57.75,227.97 L 62.71,222.20 L 65.22,219.51 L 70.23,214.27 L 72.74,211.88 L 77.97,207.08 L 81.86,203.69 L 83.92,201.96 L 88.10,198.49 L 90.20,196.80 L 94.41,193.46 L 96.43,191.91 L 100.40,188.90 L 102.20,187.59 L 105.68,185.10 L 107.14,184.13 L 108.55,183.20 L 109.17,182.81 L 110.36,182.10 L 110.85,181.83 L 111.77,181.35 L 112.12,181.21 L 112.75,181.00 L 112.95,181.00 M 412.05,509.01 L 412.05,509.01 L 412.21,508.98 M 418.93,507.29 L 418.92,507.29 L 419.45,507.13 M 456.49,489.52 L 456.45,489.54 L 457.16,489.03 M 459.27,487.50 L 459.24,487.52 L 459.42,487.38 M 464.73,483.34 L 464.63,483.41 L 466.40,481.91 M 467.34,481.10 L 467.09,481.32 L 468.56,480.01 M 474.86,474.10 L 472.45,476.53 L 472.27,476.69 L 474.48,474.48 L 477.09,471.77 M 481.81,466.52 L 479.60,469.14 L 479.33,469.41 L 481.41,466.98 L 484.74,462.92 M 488.14,458.42 L 486.13,461.20 L 485.81,461.61 L 487.74,458.94 L 491.31,453.80 M 493.81,449.81 L 492.03,452.76 L 491.67,453.28 L 493.43,450.40 L 496.73,444.73 M 498.79,440.75 L 497.25,443.84 L 496.90,444.45 L 498.44,441.40 L 501.06,435.94 M 503.03,431.26 L 501.74,434.49 L 501.46,435.10 L 502.73,431.98 L 504.42,427.56 M 506.51,421.39 L 505.49,424.74 L 505.31,425.21 L 506.27,422.16 L 507.02,419.62 M 508.43,414.64 L 508.40,414.77 L 508.60,413.87 M 511.84,318.91 L 511.83,327.42 L 511.83,331.58 L 511.81,339.36 L 511.81,343.16 L 511.79,350.21 L 511.77,353.65 L 511.75,359.98 L 511.73,363.06 L 511.70,368.69 L 511.68,371.42 L 511.63,376.34 L 511.61,378.72 L 511.56,382.94 L 511.53,384.97 L 511.48,388.51 L 511.45,390.20 L 511.38,393.06 L 511.34,394.40 L 511.27,396.59 L 511.23,397.60 L 511.15,399.12 L 511.03,400.55 L 511.06,400.13 L 511.12,398.54 L 511.15,397.41 L 511.21,394.96 L 511.23,393.44 L 511.29,390.19 L 511.32,388.29 L 511.37,384.31 L 511.40,382.07 L 511.45,377.42 L 511.47,374.86 L 511.52,369.60 L 511.54,366.77 L 511.59,360.96 L 511.61,357.87 L 511.65,351.57 L 511.68,348.26 L 511.72,341.53 L 511.73,338.03 L 511.77,330.94 L 511.79,327.27 L 511.82,319.88 L 511.84,316.60 M 354.45,390.34 L 353.94,390.69 L 354.57,390.24 M 363.34,383.36 L 360.41,385.72 L 358.77,386.99 L 361.38,384.91 L 364.06,382.70 M 412.91,295.45 L 412.18,298.80 L 411.41,302.18 L 410.98,303.95 L 410.06,307.54 L 409.54,309.46 L 405.94,320.94 L 403.15,328.34 L 401.56,331.91 L 398.26,338.96 L 396.43,342.35 L 392.64,349.03 L 390.56,352.23 L 386.30,358.53 L 384.00,361.53 L 379.29,367.43 L 376.77,370.23 L 371.63,375.71 L 368.90,378.30 L 365.17,381.69 L 369.82,377.35 L 372.53,374.72 L 377.64,369.14 L 380.14,366.29 L 384.81,360.29 L 387.09,357.24 L 391.31,350.85 L 393.36,347.60 L 397.11,340.82 L 398.92,337.38 L 402.17,330.24 L 403.73,326.62 L 406.47,319.12 L 409.98,307.50 L 410.58,305.21 L 411.59,301.14 L 412.07,299.18 L 412.86,295.59 L 412.98,295.01 M 395.44,1.11 L 398.26,1.22 L 399.58,1.27 L 401.78,1.39 L 402.81,1.45 L 404.50,1.58 L 405.29,1.65 L 406.59,1.80 L 409.50,2.33 L 412.54,3.07 L 418.45,4.77 L 421.38,5.66 L 427.03,7.64 L 429.83,8.66 L 435.22,10.92 L 437.89,12.07 L 443.00,14.59 L 445.53,15.88 L 450.36,18.65 L 452.73,20.07 L 457.26,23.09 L 459.48,24.63 L 463.69,27.90 L 469.63,33.07 L 472.21,35.49 L 476.98,40.41 L 479.30,42.88 L 483.56,47.94 L 485.63,50.49 L 489.42,55.72 L 491.26,58.37 L 494.59,63.84 L 496.21,66.61 L 499.13,72.36 L 500.54,75.27 L 503.06,81.34 L 504.28,84.42 L 506.43,90.87 L 509.29,101.00 L 509.55,102.05 L 509.98,104.11 L 510.08,104.67 L 510.27,105.95 L 510.35,106.64 L 510.51,108.27 L 510.59,109.15 L 510.72,111.28 L 510.78,112.42 L 510.90,115.19 L 510.95,116.66 L 511.05,120.21 L 511.10,122.10 L 511.18,126.57 L 511.20,127.75 L 511.23,130.32 L 511.25,131.63 L 511.28,134.47 L 511.30,135.93 L 511.33,139.07 L 511.35,140.68 L 511.36,142.48 L 511.35,142.51 L 511.18,142.97 L 511.08,143.31 L 510.59,144.93 L 510.28,146.07 L 509.60,148.56 L 509.22,150.04 L 508.43,153.12 L 508.01,154.78 L 506.60,160.11 L 505.54,163.84 L 504.99,165.64 L 503.88,169.18 L 503.36,170.72 L 502.35,173.64 L 501.93,174.71 L 497.19,185.25 L 493.58,192.00 L 491.56,195.24 L 487.38,201.60 L 485.09,204.63 L 480.36,210.57 L 477.80,213.38 L 472.56,218.87 L 469.75,221.44 L 464.02,226.45 L 460.97,228.77 L 454.78,233.27 L 451.51,235.32 L 444.88,239.28 L 441.41,241.05 L 434.25,244.45 L 429.50,246.48 L 427.35,247.30 L 425.24,248.09 L 424.28,248.42 L 422.42,249.03 L 421.61,249.27 L 420.08,249.69 L 419.46,249.81 L 418.33,250.00 L 417.94,250.00 L 417.05,250.54 L 416.82,251.04 L 416.72,251.41 L 416.54,252.26 L 416.46,252.85 L 416.32,254.13 L 416.25,254.97 L 416.12,256.78 L 416.07,257.91 L 415.95,260.33 L 415.89,261.80 L 415.78,264.91 L 415.72,266.75 L 415.45,273.01 L 415.23,276.88 L 415.17,277.66 L 415.30,274.55 L 415.37,272.50 L 415.45,267.90 L 415.49,260.00 L 415.49,258.76 L 415.49,256.48 L 415.49,255.37 L 415.48,253.35 L 415.48,251.38 L 415.44,248.16 L 415.42,246.64 L 415.35,244.20 L 415.31,243.06 L 415.18,241.25 L 415.12,240.41 L 414.93,239.09 L 414.83,238.47 L 414.57,237.48 L 413.45,235.00 L 412.88,234.04 L 411.01,231.87 L 408.05,229.25 L 404.70,227.00 L 337.50,227.00 L 270.30,227.00 L 266.95,229.25 L 266.13,229.81 L 264.74,230.88 L 264.09,231.41 L 263.01,232.56 L 262.50,233.15 L 261.69,234.50 L 261.32,235.22 L 260.73,236.92 L 260.46,237.84 L 260.06,240.04 L 259.88,241.21 L 259.62,244.04 L 259.50,245.55 L 259.34,249.16 L 259.17,255.60 L 259.14,257.04 L 259.11,259.73 L 259.10,261.04 L 259.11,263.47 L 259.13,265.84 L 259.31,269.86 L 259.43,271.77 L 259.83,274.97 L 260.07,276.48 L 260.74,278.99 L 261.11,280.17 L 262.09,282.12 L 262.62,283.03 L 263.94,284.55 L 264.65,285.26 L 266.37,286.48 L 269.42,288.10 L 269.89,288.32 L 270.87,288.67 L 271.39,288.84 L 272.65,289.11 L 273.34,289.24 L 275.12,289.44 L 276.09,289.53 L 278.63,289.67 L 279.32,289.70 L 280.89,289.75 L 281.71,289.78 L 283.54,289.82 L 284.50,289.84 L 286.64,289.88 L 287.75,289.89 L 290.22,289.91 L 291.49,289.93 L 294.32,289.94 L 295.78,289.95 L 299.00,289.96 L 300.66,289.97 L 304.29,289.97 L 310.25,289.98 L 312.11,289.98 L 315.56,289.98 L 317.25,289.99 L 320.37,290.00 L 321.89,290.00 L 324.69,290.02 L 326.05,290.02 L 326.79,290.03 L 323.38,290.02 L 320.75,290.03 L 294.50,290.05 L 288.01,297.74 L 282.01,305.26 L 278.21,310.46 L 276.47,313.04 L 273.12,318.18 L 271.69,320.62 L 269.00,325.40 L 267.98,327.55 L 266.56,330.69 L 265.57,333.07 L 265.06,334.34 L 263.04,339.60 L 262.14,342.16 L 261.27,344.69 L 260.89,345.86 L 260.18,348.11 L 259.90,349.09 L 259.39,350.91 L 259.24,351.61 L 259.00,352.85 L 259.00,353.19 L 259.06,353.70 L 259.19,353.91 L 259.51,354.31 L 259.79,354.46 L 260.12,354.60 L 258.09,354.57 L 255.23,354.46 L 249.52,353.87 L 246.67,353.51 L 240.99,352.39 L 238.15,351.77 L 232.55,350.13 L 224.27,347.05 L 221.28,345.78 L 215.60,342.92 L 212.81,341.43 L 207.54,338.15 L 204.96,336.46 L 200.09,332.77 L 197.70,330.87 L 193.24,326.76 L 191.05,324.65 L 186.99,320.12 L 185.00,317.80 L 181.34,312.85 L 179.56,310.33 L 176.30,304.96 L 171.86,296.44 L 171.32,295.28 L 170.28,293.16 L 169.78,292.15 L 168.91,290.48 L 168.50,289.71 L 167.89,288.67 L 167.37,288.00 L 167.32,288.00 L 166.66,288.45 L 166.24,288.74 L 164.90,289.72 L 164.16,290.26 L 162.60,291.44 L 162.96,291.16 L 164.78,289.76 L 165.47,289.23 L 166.70,288.28 L 167.07,288.00 L 167.64,287.57 L 167.65,287.57 L 167.54,286.95 L 167.32,286.00 L 167.14,285.32 L 166.76,283.82 L 166.52,282.92 L 166.01,281.03 L 165.73,280.00 L 164.69,275.56 L 164.21,272.54 L 164.06,270.78 L 163.92,268.96 L 163.87,267.94 L 163.77,265.81 L 163.74,264.61 L 163.69,262.11 L 163.68,260.68 L 163.66,257.70 L 163.66,256.00 L 163.74,249.26 L 163.88,245.24 L 164.01,243.42 L 164.31,239.88 L 164.53,238.24 L 165.02,235.03 L 165.35,233.49 L 166.06,230.45 L 166.51,228.93 L 167.47,225.90 L 168.06,224.33 L 169.31,221.15 L 170.06,219.45 L 171.64,215.97 L 172.56,214.06 L 174.81,209.57 L 176.31,206.78 L 177.07,205.47 L 180.18,200.43 L 181.89,198.10 L 185.46,193.51 L 187.53,191.23 L 189.67,188.93 L 190.83,187.76 L 193.22,185.39 L 194.52,184.15 L 201.25,178.27 L 205.82,174.75 L 208.16,173.18 L 212.89,170.19 L 215.32,168.88 L 220.23,166.39 L 222.77,165.33 L 227.90,163.34 L 230.56,162.52 L 235.95,161.01 L 238.76,160.43 L 244.44,159.38 L 247.40,159.02 L 253.40,158.43 L 256.54,158.29 L 263.84,158.20 L 268.53,158.36 L 270.80,158.57 L 275.28,159.05 L 277.47,159.42 L 281.80,160.23 L 283.92,160.76 L 288.14,161.92 L 290.22,162.62 L 294.37,164.13 L 296.44,165.01 L 300.56,166.88 L 302.63,167.95 L 306.77,170.19 L 308.86,171.45 L 314.90,174.77 L 316.67,175.62 L 317.38,175.92 L 318.67,176.43 L 319.06,176.51 L 321.12,176.71 L 322.55,176.59 L 323.32,176.38 L 324.89,175.87 L 325.74,175.46 L 327.51,174.52 L 328.49,173.88 L 330.52,172.49 L 331.66,171.60 L 334.01,169.70 L 335.33,168.54 L 338.06,166.09 L 339.60,164.65 L 342.78,161.62 L 344.56,159.87 L 349.81,154.62 L 352.92,151.43 L 354.18,150.09 L 355.38,148.80 L 355.89,148.24 L 356.85,147.18 L 357.22,146.75 L 357.88,145.96 L 358.10,145.68 L 358.44,145.20 L 358.47,145.10 L 359.37,144.26 L 359.99,144.06 L 360.43,143.98 L 361.42,143.83 L 362.09,143.78 L 363.54,143.67 L 364.46,143.63 L 366.46,143.57 L 367.69,143.54 L 370.33,143.51 L 371.91,143.50 L 375.26,143.48 L 377.24,143.48 L 384.45,143.41 L 388.63,143.30 L 390.47,143.20 L 393.99,142.97 L 395.56,142.79 L 398.60,142.39 L 400.00,142.12 L 402.74,141.53 L 404.07,141.15 L 406.70,140.33 L 408.04,139.82 L 410.74,138.73 L 412.18,138.07 L 415.14,136.68 L 416.78,135.86 L 424.46,131.25 L 429.47,127.50 L 431.84,125.37 L 436.46,120.95 L 438.53,118.57 L 442.48,113.71 L 444.12,111.21 L 448.23,104.09 L 450.52,99.23 L 451.44,96.76 L 453.14,91.78 L 453.77,89.26 L 454.89,84.21 L 455.24,81.67 L 455.80,76.59 L 455.87,74.05 L 455.87,68.97 L 455.67,66.45 L 455.14,61.43 L 454.67,58.95 L 453.61,54.02 L 452.89,51.60 L 451.31,46.81 L 450.34,44.48 L 448.26,39.86 L 447.04,37.63 L 444.47,33.23 L 443.01,31.13 L 439.96,26.99 L 438.27,25.03 L 434.76,21.19 L 432.84,19.40 L 428.88,15.91 L 426.73,14.31 L 422.33,11.20 L 419.97,9.81 L 415.15,7.13 L 412.58,5.96 L 408.08,3.90 L 405.31,2.80 L 403.57,2.37 L 401.73,1.96 L 400.64,1.79 L 398.30,1.45 L 396.89,1.31 L 394.48,1.09 M 283.35,352.25 L 280.62,352.86 L 277.63,353.33 L 283.97,352.09 M 288.77,350.90 L 287.40,351.24 L 290.20,350.45 M 299.19,347.21 L 296.65,348.27 L 295.04,348.82 L 295.60,348.61 L 300.94,346.43 M 326.23,329.48 L 324.32,331.35 L 320.21,334.82 L 318.11,336.50 L 313.66,339.56 L 311.39,341.05 L 306.63,343.70 L 304.22,344.98 L 302.77,345.62 L 305.22,344.37 L 311.28,341.05 L 314.12,339.16 L 319.66,335.24 L 322.20,333.06 L 326.82,328.87 M 331.65,323.57 L 329.95,325.63 L 327.75,327.90 L 329.35,326.14 L 332.73,322.19 M 336.41,317.10 L 334.94,319.35 L 334.22,320.27 L 335.47,318.47 L 337.77,314.90 M 339.23,312.53 L 340.44,310.11 L 339.23,312.53 M 27.69,48.47 L 28.38,47.57 L 28.51,47.42 M 32.56,42.72 L 30.92,44.61 L 32.16,43.16 L 34.09,40.98 L 34.42,40.65 M 81.61,8.67 L 76.26,10.88 L 73.65,12.11 L 68.48,14.65 L 65.97,16.05 L 61.00,18.93 L 58.59,20.49 L 53.83,23.68 L 51.54,25.39 L 47.01,28.88 L 44.84,30.74 L 40.55,34.53 L 38.50,36.52 L 34.98,40.07 L 38.15,36.84 L 40.21,34.81 L 44.54,30.96 L 46.74,29.07 L 51.32,25.51 L 53.64,23.78 L 58.46,20.54 L 60.89,18.96 L 65.93,16.04 L 68.47,14.63 L 73.72,12.06 L 76.36,10.81 L 81.80,8.59 L 83.42,7.96 M 84.36,7.59 L 84.53,7.53 L 86.58,6.85 M 149.47,0.17 L 146.42,0.19 L 140.57,0.24 L 137.99,0.27 L 133.06,0.33 L 130.90,0.36 L 126.80,0.43 L 125.02,0.47 L 121.65,0.56 L 120.20,0.61 L 117.46,0.70 L 116.29,0.76 L 114.09,0.87 L 113.16,0.93 L 111.39,1.06 L 110.98,1.10 L 111.40,1.05 L 112.16,0.98 L 113.94,0.85 L 114.87,0.79 L 117.08,0.68 L 118.25,0.62 L 121.00,0.53 L 122.45,0.48 L 125.84,0.41 L 127.63,0.37 L 131.77,0.31 L 133.94,0.28 L 138.94,0.23 L 141.56,0.21 L 147.51,0.17 L 149.07,0.16 L 152.38,0.15 L 153.94,0.15 Z" fill="rgba(222,235,245,1)"/>
<path d="M 511.77,149.50 L 511.81,152.73 L 511.83,154.44 L 511.86,158.41 L 511.88,160.48 L 511.91,165.12 L 511.92,167.52 L 511.95,172.77 L 511.96,175.47 L 511.98,181.27 L 511.99,184.24 L 512.00,190.53 L 512.01,193.73 L 512.02,200.45 L 512.03,203.86 L 512.03,210.95 L 512.03,214.53 L 512.03,221.92 L 512.03,229.38 L 512.02,244.96 L 512.01,252.81 L 511.98,268.82 L 511.97,276.83 L 511.92,292.77 L 511.90,300.69 L 511.84,316.08 L 511.82,319.88 L 511.79,327.27 L 511.77,330.94 L 511.73,338.03 L 511.72,341.53 L 511.68,348.26 L 511.65,351.57 L 511.61,357.87 L 511.59,360.96 L 511.54,366.77 L 511.52,369.60 L 511.47,374.86 L 511.45,377.42 L 511.40,382.07 L 511.37,384.31 L 511.32,388.29 L 511.29,390.19 L 511.23,393.44 L 511.21,394.96 L 511.15,397.41 L 511.12,398.54 L 511.06,400.13 L 510.97,401.50 L 510.46,405.05 L 509.03,411.99 L 508.25,415.43 L 506.27,422.16 L 505.22,425.49 L 502.73,431.98 L 501.42,435.18 L 498.44,441.40 L 496.88,444.47 L 493.43,450.40 L 491.64,453.33 L 487.74,458.94 L 485.74,461.70 L 481.41,466.98 L 479.20,469.57 L 474.48,474.48 L 472.07,476.89 L 466.98,481.41 L 464.38,483.63 L 458.94,487.74 L 456.17,489.75 L 450.40,493.43 L 447.48,495.21 L 441.40,498.44 L 438.33,499.99 L 431.98,502.73 L 428.77,504.04 L 422.16,506.27 L 418.83,507.32 L 411.99,509.03 L 401.50,510.97 L 400.96,511.04 L 399.59,511.18 L 398.87,511.25 L 397.19,511.38 L 395.44,511.50 L 391.22,511.68 L 389.04,511.76 L 384.29,511.87 L 381.89,511.92 L 377.05,511.96 L 374.66,511.96 L 370.19,511.92 L 368.03,511.89 L 366.74,511.85 L 366.82,511.84 L 367.47,511.73 L 367.63,511.66 L 367.86,511.53 L 367.78,511.45 L 367.44,511.28 L 367.00,511.12 L 366.67,511.02 L 365.14,510.54 L 364.06,510.24 L 361.71,509.59 L 360.32,509.22 L 357.43,508.47 L 355.87,508.08 L 348.04,505.92 L 342.95,504.28 L 340.47,503.36 L 335.55,501.47 L 333.16,500.43 L 328.42,498.28 L 326.12,497.12 L 321.57,494.73 L 319.36,493.44 L 315.00,490.81 L 312.89,489.41 L 308.73,486.54 L 306.72,485.02 L 302.76,481.92 L 300.85,480.29 L 297.09,476.96 L 295.30,475.22 L 291.75,471.67 L 290.06,469.82 L 286.74,466.06 L 285.16,464.10 L 282.06,460.12 L 280.59,458.06 L 277.72,453.88 L 276.37,451.71 L 273.74,447.33 L 272.51,445.06 L 270.12,440.48 L 269.01,438.11 L 266.86,433.34 L 265.88,430.88 L 264.42,427.24 L 263.63,425.25 L 263.30,424.46 L 262.70,423.01 L 262.46,422.46 L 262.01,421.46 L 261.84,421.11 L 261.52,420.50 L 261.39,420.31 L 261.32,420.21 L 261.42,420.20 L 261.77,420.16 L 262.68,420.07 L 263.17,420.02 L 264.32,419.91 L 265.54,419.79 L 268.56,419.53 L 273.70,419.10 L 277.90,418.76 L 286.10,417.67 L 290.18,417.05 L 298.12,415.41 L 302.05,414.52 L 309.71,412.34 L 313.50,411.19 L 320.86,408.49 L 324.49,407.08 L 331.53,403.89 L 335.00,402.23 L 341.69,398.54 L 344.99,396.64 L 351.33,392.48 L 354.45,390.34 L 360.41,385.72 L 363.34,383.36 L 368.90,378.30 L 371.63,375.71 L 376.77,370.23 L 379.29,367.43 L 384.00,361.53 L 386.30,358.53 L 390.56,352.23 L 392.64,349.03 L 396.43,342.35 L 398.26,338.96 L 401.56,331.91 L 403.15,328.34 L 405.94,320.94 L 409.54,309.46 L 410.06,307.54 L 410.98,303.95 L 411.41,302.18 L 412.18,298.80 L 412.91,295.45 L 413.97,288.96 L 414.44,285.68 L 415.09,278.69 L 415.23,276.88 L 415.45,273.01 L 415.72,266.75 L 415.78,264.91 L 415.89,261.80 L 415.95,260.33 L 416.07,257.91 L 416.12,256.78 L 416.25,254.97 L 416.32,254.13 L 416.46,252.85 L 416.54,252.26 L 416.63,251.85 L 416.90,252.00 L 417.25,252.00 L 418.82,251.76 L 420.32,251.38 L 421.26,251.09 L 423.24,250.46 L 424.36,250.07 L 426.68,249.24 L 427.92,248.78 L 433.04,246.78 L 435.57,245.69 L 438.06,244.60 L 439.24,244.05 L 441.52,242.97 L 442.53,242.46 L 450.80,237.79 L 456.20,234.31 L 458.82,232.40 L 464.01,228.47 L 466.50,226.35 L 471.43,222.02 L 473.78,219.72 L 478.40,215.03 L 480.58,212.57 L 484.84,207.58 L 486.82,204.98 L 490.68,199.73 L 492.44,197.03 L 495.84,191.57 L 497.35,188.78 L 499.17,185.18 L 500.43,182.49 L 501.06,181.05 L 503.57,175.04 L 504.72,171.96 L 505.83,168.90 L 506.34,167.43 L 507.31,164.51 L 507.72,163.16 L 508.49,160.53 L 508.79,159.37 L 509.31,157.16 L 509.46,156.26 L 510.23,153.09 L 510.53,152.28 L 510.68,152.00 L 510.96,151.52 L 511.09,151.45 L 511.44,150.86 L 511.65,150.16 L 511.73,149.69 L 511.77,149.41 M 260.55,420.87 L 260.76,421.84 L 260.96,422.53 L 261.41,424.01 L 261.71,424.90 L 262.35,426.76 L 262.73,427.79 L 263.18,428.98 L 262.97,428.42 L 262.56,427.35 L 261.83,425.39 L 261.48,424.45 L 260.94,422.87 L 260.70,422.14 L 260.40,421.11 L 260.30,420.36 L 260.32,420.35 L 260.55,420.31 M 327.93,290.03 L 330.09,290.04 L 333.74,290.07 L 335.47,290.09 L 338.32,290.15 L 339.65,290.18 L 341.78,290.27 L 342.76,290.32 L 344.25,290.44 L 344.92,290.51 L 345.86,290.67 L 346.27,290.75 L 346.74,290.96 L 347.00,291.32 L 347.00,291.67 L 346.85,292.67 L 346.75,293.22 L 346.42,294.55 L 346.06,295.95 L 344.92,299.40 L 344.29,301.18 L 342.81,304.90 L 340.44,310.11 L 338.99,313.00 L 335.47,318.47 L 333.62,321.14 L 329.35,326.14 L 327.14,328.58 L 322.20,333.06 L 319.66,335.24 L 314.12,339.16 L 311.28,341.05 L 305.22,344.37 L 302.12,345.95 L 295.60,348.61 L 292.28,349.86 L 285.37,351.82 L 274.64,353.92 L 273.16,354.12 L 270.58,354.45 L 269.35,354.59 L 267.22,354.80 L 266.21,354.89 L 264.51,354.98 L 263.71,355.02 L 262.40,354.99 L 261.79,354.96 L 260.84,354.81 L 260.41,354.72 L 260.31,354.68 L 260.71,354.28 L 261.00,353.23 L 261.00,352.56 L 261.21,351.04 L 261.53,349.57 L 261.77,348.69 L 262.90,344.82 L 263.62,342.81 L 268.66,330.46 L 272.45,322.78 L 274.60,319.13 L 279.09,311.94 L 281.65,308.46 L 286.99,301.55 L 290.02,298.11 L 292.75,294.90 L 294.23,293.06 L 294.75,292.33 L 295.65,291.04 L 295.83,290.66 L 295.97,290.33 L 295.97,290.24 L 295.91,290.12 L 295.80,290.14 L 294.89,290.58 L 294.14,291.12 L 293.69,291.50 L 292.77,292.35 L 292.25,292.87 L 291.21,293.95 L 294.50,290.05 L 320.75,290.03 L 323.38,290.02 M 259.06,353.70 L 259.00,353.19 L 259.06,353.71 M 282.58,304.57 L 279.70,308.52 L 278.29,310.57 L 275.50,314.68 L 274.21,316.70 L 271.71,320.70 L 270.63,322.57 L 268.62,326.20 L 269.00,325.40 L 271.69,320.62 L 273.12,318.18 L 276.47,313.04 L 278.21,310.46 L 282.01,305.26 L 282.90,304.15 M 431.76,245.55 L 429.97,246.30 L 426.48,247.71 L 424.92,248.26 L 421.97,249.24 L 420.76,249.54 L 419.61,249.80 L 419.11,249.88 L 418.80,249.92 L 419.46,249.81 L 420.08,249.69 L 421.61,249.27 L 422.42,249.03 L 424.28,248.42 L 425.24,248.09 L 427.35,247.30 L 429.50,246.48 L 433.20,244.90 M 439.44,242.02 L 435.58,243.81 L 435.56,243.82 L 440.05,241.69 M 459.78,229.83 L 457.32,231.59 L 452.63,234.70 L 449.11,236.81 L 447.54,237.69 L 451.51,235.32 L 454.78,233.27 L 460.97,228.77 L 462.79,227.39 M 467.39,223.56 L 465.38,225.26 L 468.30,222.71 M 474.77,216.55 L 474.71,216.61 L 474.93,216.38 M 485.07,204.66 L 484.73,205.08 L 485.09,204.63 L 485.60,203.96 M 490.40,197.07 L 489.12,198.96 L 489.00,199.13 L 491.18,195.82 M 495.05,189.49 L 493.99,191.25 L 496.60,186.36 M 499.84,179.67 L 498.92,181.67 L 497.62,184.29 L 501.32,176.06 M 506.04,162.19 L 504.64,166.86 L 504.19,168.19 L 504.99,165.64 L 505.54,163.84 L 506.43,160.71 M 511.54,142.13 L 511.51,142.16 L 511.54,142.13 M 259.24,351.61 L 259.39,350.91 L 259.90,349.09 L 260.18,348.11 L 260.89,345.86 L 261.27,344.69 L 261.75,343.29 L 261.26,344.73 L 260.88,345.90 L 260.17,348.14 L 259.89,349.11 L 259.39,350.93 L 259.24,351.62 L 259.00,352.85 L 259.00,352.85 Z" fill="rgba(205,220,235,1)"/>
<path d="M 261.07,419.96 L 261.16,420.01 L 261.39,420.31 L 261.52,420.50 L 261.84,421.11 L 262.01,421.46 L 262.46,422.46 L 262.70,423.01 L 263.30,424.46 L 263.63,425.25 L 264.42,427.24 L 265.88,430.88 L 266.86,433.34 L 269.01,438.11 L 270.12,440.48 L 272.51,445.06 L 273.74,447.33 L 276.37,451.71 L 277.72,453.88 L 280.59,458.06 L 282.06,460.12 L 285.16,464.10 L 286.74,466.06 L 290.06,469.82 L 291.75,471.67 L 295.30,475.22 L 297.09,476.96 L 300.85,480.29 L 302.76,481.92 L 306.72,485.02 L 308.73,486.54 L 312.89,489.41 L 315.00,490.81 L 319.36,493.44 L 321.57,494.73 L 326.12,497.12 L 328.42,498.28 L 333.16,500.43 L 335.55,501.47 L 340.47,503.36 L 342.95,504.28 L 348.04,505.92 L 355.87,508.08 L 357.43,508.47 L 360.32,509.22 L 361.71,509.59 L 364.06,510.24 L 365.14,510.54 L 366.67,511.02 L 367.00,511.12 L 367.44,511.28 L 367.78,511.45 L 367.86,511.53 L 367.63,511.66 L 367.47,511.73 L 366.82,511.84 L 366.45,511.89 L 365.47,511.96 L 363.73,512.00 L 362.46,512.00 L 360.31,511.74 L 359.84,511.66 L 359.15,511.46 L 358.85,511.35 L 358.57,511.11 L 358.49,510.99 L 358.08,510.72 L 357.83,510.58 L 357.14,510.29 L 354.46,509.56 L 352.98,509.28 L 349.68,508.43 L 347.99,507.97 L 344.36,506.78 L 342.51,506.15 L 338.66,504.67 L 336.72,503.90 L 332.75,502.17 L 328.78,500.40 L 320.96,496.33 L 319.05,495.29 L 315.40,493.13 L 310.29,489.84 L 308.28,488.46 L 304.21,485.28 L 302.17,483.63 L 298.09,479.96 L 296.06,478.08 L 292.07,474.03 L 290.10,471.97 L 286.28,467.66 L 284.41,465.47 L 280.86,460.99 L 279.13,458.73 L 275.94,454.18 L 274.40,451.91 L 271.65,447.39 L 268.14,440.79 L 267.22,438.86 L 265.32,434.39 L 264.38,432.14 L 262.73,427.79 L 262.35,426.76 L 261.71,424.90 L 261.41,424.01 L 260.96,422.53 L 260.76,421.84 L 260.55,420.87 L 260.55,420.12 L 260.73,419.94 M 295.97,290.24 L 295.97,290.33 L 295.83,290.66 L 295.65,291.04 L 294.75,292.33 L 294.23,293.06 L 292.75,294.90 L 290.02,298.11 L 286.99,301.55 L 281.65,308.46 L 279.09,311.94 L 274.60,319.13 L 272.45,322.78 L 268.66,330.46 L 263.62,342.81 L 262.90,344.82 L 261.77,348.69 L 261.53,349.57 L 261.21,351.04 L 261.00,352.56 L 261.00,353.23 L 260.71,354.28 L 260.00,355.00 L 259.72,355.00 L 259.29,354.47 L 259.11,354.14 L 259.00,353.19 L 259.00,352.85 L 259.24,351.62 L 259.39,350.93 L 259.89,349.11 L 260.17,348.14 L 260.88,345.90 L 261.26,344.73 L 262.12,342.22 L 263.01,339.67 L 265.01,334.46 L 265.51,333.20 L 266.48,330.86 L 267.87,327.77 L 268.62,326.20 L 270.63,322.57 L 271.71,320.70 L 274.21,316.70 L 275.50,314.68 L 278.29,310.57 L 279.70,308.52 L 282.58,304.57 L 284.02,302.64 L 286.78,299.13 L 288.13,297.45 L 290.59,294.63 L 291.17,293.99 L 292.25,292.87 L 292.77,292.35 L 293.69,291.50 L 294.14,291.12 L 294.89,290.58 L 295.80,290.14 L 295.91,290.12 M 511.70,142.33 L 511.76,142.51 L 511.86,143.17 L 511.90,143.54 L 511.96,144.52 L 512.00,146.27 L 512.00,147.54 L 511.73,149.69 L 511.65,150.16 L 511.44,150.86 L 511.09,151.45 L 510.96,151.52 L 510.68,152.00 L 510.53,152.28 L 510.23,153.09 L 509.46,156.26 L 509.31,157.16 L 508.79,159.37 L 508.49,160.53 L 507.72,163.16 L 507.31,164.51 L 506.34,167.43 L 505.83,168.90 L 504.72,171.96 L 503.57,175.04 L 501.06,181.05 L 500.43,182.49 L 499.17,185.18 L 497.35,188.78 L 495.84,191.57 L 492.44,197.03 L 490.68,199.73 L 486.82,204.98 L 484.84,207.58 L 480.58,212.57 L 478.40,215.03 L 473.78,219.72 L 471.43,222.02 L 466.50,226.35 L 464.01,228.47 L 458.82,232.40 L 456.20,234.31 L 450.80,237.79 L 442.53,242.46 L 441.52,242.97 L 439.24,244.05 L 438.06,244.60 L 435.57,245.69 L 433.04,246.78 L 427.92,248.78 L 426.68,249.24 L 424.36,250.07 L 423.24,250.46 L 421.26,251.09 L 420.32,251.38 L 418.82,251.76 L 417.25,252.00 L 416.90,252.00 L 416.37,251.71 L 416.14,251.52 L 416.00,251.00 L 416.00,250.72 L 416.53,250.29 L 417.81,250.00 L 418.18,250.00 L 419.11,249.88 L 419.61,249.80 L 420.76,249.54 L 421.97,249.24 L 424.92,248.26 L 426.48,247.71 L 429.97,246.30 L 431.76,245.55 L 435.58,243.81 L 439.44,242.02 L 447.23,237.86 L 449.11,236.81 L 452.63,234.70 L 457.32,231.59 L 459.78,229.83 L 464.86,225.70 L 467.39,223.56 L 472.35,218.91 L 474.77,216.55 L 479.26,211.73 L 485.07,204.66 L 486.50,202.75 L 489.12,198.96 L 490.40,197.07 L 492.76,193.29 L 495.05,189.49 L 498.92,181.67 L 499.84,179.67 L 501.53,175.54 L 502.36,173.44 L 503.89,169.08 L 504.64,166.86 L 506.04,162.19 L 508.01,154.78 L 508.43,153.12 L 509.22,150.04 L 509.60,148.56 L 510.28,146.07 L 510.59,144.93 L 511.08,143.31 L 511.18,142.97 L 511.35,142.51 L 511.51,142.16 L 511.57,142.09 Z" fill="rgba(216,227,238,1)"/>
<path d="M 305.23,-0.00 L 308.83,-0.00 L 315.61,0.00 L 318.94,0.00 L 325.21,0.01 L 328.28,0.01 L 334.06,0.02 L 336.90,0.03 L 342.21,0.04 L 344.81,0.05 L 349.68,0.07 L 352.06,0.09 L 356.51,0.11 L 358.68,0.13 L 362.73,0.16 L 364.70,0.18 L 368.37,0.22 L 370.16,0.25 L 373.47,0.30 L 375.09,0.33 L 378.07,0.39 L 379.52,0.42 L 382.19,0.49 L 383.49,0.53 L 385.88,0.62 L 388.19,0.70 L 392.06,0.92 L 393.88,1.03 L 396.89,1.31 L 398.30,1.45 L 400.64,1.79 L 401.73,1.96 L 403.57,2.37 L 405.31,2.80 L 408.08,3.90 L 412.58,5.96 L 415.15,7.13 L 419.97,9.81 L 422.33,11.20 L 426.73,14.31 L 428.88,15.91 L 432.84,19.40 L 434.76,21.19 L 438.27,25.03 L 439.96,26.99 L 443.01,31.13 L 444.47,33.23 L 447.04,37.63 L 448.26,39.86 L 450.34,44.48 L 451.31,46.81 L 452.89,51.60 L 453.61,54.02 L 454.67,58.95 L 455.14,61.43 L 455.67,66.45 L 455.87,68.97 L 455.87,74.05 L 455.80,76.59 L 455.24,81.67 L 454.89,84.21 L 453.77,89.26 L 453.14,91.78 L 451.44,96.76 L 450.52,99.23 L 448.23,104.09 L 444.12,111.21 L 442.48,113.71 L 438.53,118.57 L 436.46,120.95 L 431.84,125.37 L 429.47,127.50 L 424.46,131.25 L 416.78,135.86 L 415.14,136.68 L 412.18,138.07 L 410.74,138.73 L 408.04,139.82 L 406.70,140.33 L 404.07,141.15 L 402.74,141.53 L 400.00,142.12 L 398.60,142.39 L 395.56,142.79 L 393.99,142.97 L 390.47,143.20 L 388.63,143.30 L 384.45,143.41 L 377.24,143.48 L 375.26,143.48 L 371.91,143.50 L 370.33,143.51 L 367.69,143.54 L 366.46,143.57 L 364.46,143.63 L 363.54,143.67 L 362.09,143.78 L 361.42,143.83 L 360.43,143.98 L 359.99,144.06 L 359.37,144.26 L 358.47,145.10 L 358.44,145.20 L 358.10,145.68 L 357.88,145.96 L 357.22,146.75 L 356.85,147.18 L 355.89,148.24 L 355.38,148.80 L 354.18,150.09 L 352.92,151.43 L 352.88,151.47 L 353.56,150.72 L 354.90,149.25 L 355.49,148.57 L 356.62,147.25 L 357.09,146.66 L 357.98,145.53 L 358.31,145.05 L 358.92,144.14 L 359.10,143.79 L 360.55,139.74 L 361.00,136.91 L 360.96,135.51 L 360.72,132.74 L 360.35,131.45 L 359.43,128.96 L 358.72,127.90 L 357.67,126.57 L 356.78,125.62 L 356.25,125.12 L 353.88,123.03 L 352.39,121.90 L 349.23,119.60 L 347.41,118.41 L 343.63,116.00 L 341.58,114.79 L 337.36,112.38 L 335.15,111.21 L 330.68,108.90 L 328.40,107.82 L 323.85,105.71 L 321.60,104.77 L 317.14,102.98 L 315.00,102.23 L 302.21,98.37 L 293.49,96.32 L 289.05,95.57 L 280.12,94.23 L 275.62,93.82 L 266.58,93.19 L 262.04,93.14 L 252.97,93.22 L 248.45,93.52 L 239.42,94.31 L 234.95,94.97 L 226.04,96.47 L 221.66,97.48 L 212.95,99.69 L 208.70,101.06 L 203.63,102.87 L 199.95,104.33 L 198.01,105.17 L 190.00,108.80 L 185.91,110.88 L 177.78,115.15 L 174.04,117.34 L 170.38,119.53 L 168.70,120.60 L 165.45,122.73 L 164.02,123.75 L 157.01,129.10 L 152.40,132.98 L 150.14,135.05 L 145.66,139.29 L 143.48,141.53 L 139.17,146.07 L 137.10,148.44 L 133.01,153.23 L 131.06,155.71 L 127.24,160.70 L 125.45,163.25 L 121.94,168.39 L 120.32,171.00 L 117.18,176.23 L 115.76,178.86 L 111.58,187.19 L 109.05,192.87 L 108.20,195.03 L 109.06,192.77 L 109.60,191.40 L 110.65,188.94 L 112.12,185.79 L 112.66,184.72 L 113.37,183.23 L 113.66,182.58 L 113.89,181.79 L 113.94,181.46 L 113.73,181.15 L 112.95,181.00 L 112.75,181.00 L 112.12,181.21 L 111.77,181.35 L 110.85,181.83 L 110.36,182.10 L 109.17,182.81 L 108.55,183.20 L 107.14,184.13 L 105.68,185.10 L 102.20,187.59 L 100.40,188.90 L 96.43,191.91 L 94.41,193.46 L 90.20,196.80 L 88.10,198.49 L 83.92,201.96 L 81.86,203.69 L 77.97,207.08 L 72.74,211.88 L 70.23,214.27 L 65.22,219.51 L 62.71,222.20 L 57.75,227.97 L 55.28,230.91 L 50.46,237.07 L 48.07,240.20 L 43.46,246.66 L 41.18,249.91 L 36.86,256.55 L 34.75,259.88 L 30.80,266.58 L 28.88,269.93 L 25.39,276.59 L 20.73,286.40 L 19.73,288.69 L 17.77,293.50 L 16.81,295.94 L 14.95,300.98 L 13.12,306.07 L 9.85,316.56 L 8.30,321.80 L 5.74,332.08 L 5.16,334.60 L 4.16,339.49 L 2.93,346.50 L 2.77,347.60 L 2.40,349.72 L 2.21,350.76 L 1.83,352.59 L 1.64,353.45 L 1.30,354.79 L 0.87,356.00 L 0.84,356.05 L 0.79,355.51 L 0.76,355.13 L 0.71,353.76 L 0.68,352.98 L 0.64,350.82 L 0.61,349.65 L 0.57,346.76 L 0.55,345.22 L 0.51,341.63 L 0.49,339.75 L 0.45,335.50 L 0.43,333.30 L 0.40,328.43 L 0.39,325.93 L 0.36,320.49 L 0.35,317.70 L 0.33,311.73 L 0.32,308.68 L 0.30,302.23 L 0.30,298.94 L 0.28,292.04 L 0.28,288.53 L 0.28,281.22 L 0.27,277.52 L 0.27,269.85 L 0.27,265.97 L 0.28,257.98 L 0.29,249.91 L 0.32,233.00 L 0.33,228.74 L 0.35,220.64 L 0.36,216.66 L 0.38,209.11 L 0.39,205.40 L 0.40,198.36 L 0.41,194.91 L 0.43,188.38 L 0.43,185.17 L 0.45,179.12 L 0.46,176.15 L 0.48,170.55 L 0.49,167.80 L 0.51,162.64 L 0.52,160.12 L 0.55,155.37 L 0.56,153.05 L 0.59,148.69 L 0.61,146.57 L 0.64,142.59 L 0.66,140.64 L 0.70,137.01 L 0.72,135.24 L 0.77,131.94 L 0.80,130.34 L 0.86,127.35 L 0.89,125.89 L 0.95,123.19 L 1.02,120.56 L 1.19,116.07 L 1.28,113.94 L 1.50,110.33 L 1.62,108.61 L 1.89,105.71 L 2.03,104.33 L 2.37,101.96 L 2.54,100.83 L 2.95,98.83 L 3.37,96.89 L 4.46,93.40 L 4.75,92.50 L 5.41,90.59 L 6.51,87.38 L 7.45,84.59 L 9.60,79.14 L 10.71,76.44 L 13.22,71.19 L 14.51,68.60 L 17.35,63.56 L 18.80,61.07 L 21.96,56.25 L 23.58,53.88 L 27.04,49.30 L 28.81,47.04 L 32.56,42.72 L 34.47,40.59 L 38.50,36.52 L 40.55,34.53 L 44.84,30.74 L 47.01,28.88 L 51.54,25.39 L 53.83,23.68 L 58.59,20.49 L 61.00,18.93 L 65.97,16.05 L 68.48,14.65 L 73.65,12.11 L 76.26,10.88 L 81.61,8.67 L 84.31,7.61 L 89.82,5.76 L 92.60,4.89 L 98.27,3.41 L 106.93,1.62 L 107.97,1.44 L 110.64,1.13 L 111.39,1.06 L 113.16,0.93 L 114.09,0.87 L 116.29,0.76 L 117.46,0.70 L 120.20,0.61 L 121.65,0.56 L 125.02,0.47 L 126.80,0.43 L 130.90,0.36 L 133.06,0.33 L 137.99,0.27 L 140.57,0.24 L 146.42,0.19 L 149.47,0.17 L 156.34,0.13 L 158.13,0.12 L 161.91,0.11 L 163.84,0.10 L 167.90,0.09 L 169.97,0.08 L 174.34,0.07 L 176.56,0.06 L 181.24,0.05 L 183.62,0.05 L 188.62,0.04 L 191.17,0.03 L 196.51,0.03 L 199.22,0.02 L 204.90,0.02 L 207.79,0.01 L 213.84,0.01 L 216.91,0.01 L 223.32,0.01 L 226.58,0.00 L 233.38,0.00 L 236.83,0.00 L 244.03,0.00 L 255.28,0.00 L 260.05,0.00 L 269.10,-0.00 L 273.56,-0.00 L 282.02,-0.00 L 286.17,-0.00 L 294.05,-0.00 L 297.92,-0.00 M 110.55,322.93 L 111.29,324.56 L 111.63,325.29 L 112.29,326.67 L 112.57,327.22 L 112.96,327.98 L 112.94,327.94 L 112.71,327.55 L 112.17,326.49 L 111.88,325.91 L 111.25,324.53 L 110.92,323.80 L 110.35,322.49 M 166.70,288.28 L 165.47,289.23 L 164.78,289.76 L 162.96,291.16 L 161.99,291.91 L 159.65,293.70 L 158.43,294.65 L 155.66,296.79 L 154.22,297.89 L 151.08,300.31 L 149.47,301.55 L 146.04,304.20 L 140.64,308.37 L 138.79,309.80 L 138.57,309.97 L 138.87,309.74 L 140.71,308.32 L 146.09,304.16 L 149.52,301.52 L 151.12,300.28 L 154.25,297.86 L 155.69,296.76 L 158.45,294.63 L 159.67,293.69 L 162.00,291.90 L 162.97,291.15 L 164.79,289.75 L 165.48,289.22 L 166.70,288.28 L 167.07,288.00 L 167.64,287.57 L 167.07,288.00 M 97.48,274.33 L 97.31,273.01 L 97.03,269.21 M 102.10,213.44 L 100.59,219.47 L 99.97,222.51 L 98.80,228.62 L 98.34,231.69 L 97.52,237.85 L 97.23,240.95 L 96.75,247.15 L 96.64,250.26 L 96.50,256.48 L 96.56,259.59 L 96.76,265.75 L 96.74,265.38 L 96.51,261.57 L 96.46,253.93 L 96.50,250.12 L 96.98,242.51 L 97.29,238.72 L 98.30,231.18 L 100.41,219.99 L 100.70,218.70 L 101.43,215.86 L 101.82,214.41 L 102.24,212.93 M 106.82,198.65 L 106.84,198.60 L 107.03,198.09 M 325.74,175.46 L 324.89,175.87 L 323.32,176.38 L 322.55,176.59 L 321.12,176.71 L 319.06,176.51 L 318.67,176.43 L 317.38,175.92 L 316.98,175.75 L 317.09,175.79 L 318.45,176.25 L 319.07,176.38 L 321.46,176.64 L 322.65,176.41 L 325.07,175.74 L 326.00,175.33 M 339.60,164.65 L 338.06,166.09 L 335.33,168.54 L 334.01,169.70 L 331.66,171.60 L 330.52,172.49 L 329.57,173.14 L 330.64,172.34 L 331.33,171.78 L 332.77,170.62 L 333.54,169.97 L 336.76,167.18 L 338.49,165.61 L 341.69,162.66 Z" fill="rgba(239,249,254,1)"/>
<path d="M 105.75,310.88 L 107.80,316.36 L 106.99,314.30 L 105.89,311.39 L 105.18,309.24 M 99.13,285.49 L 100.84,294.12 L 101.94,298.36 L 103.99,305.62 L 103.95,305.48 L 103.02,302.51 L 101.43,296.50 L 100.68,293.49 L 99.43,287.39 L 98.85,284.34 L 98.53,282.15 M 97.32,272.38 L 98.22,280.00 L 97.96,278.19 L 97.55,275.10 L 97.19,271.10 M 96.84,266.77 L 96.77,265.81 L 96.61,260.99 M 164.01,243.42 L 163.88,245.24 L 163.74,249.26 L 163.66,256.00 L 163.66,257.70 L 163.68,260.68 L 163.69,262.11 L 163.74,264.61 L 163.77,265.81 L 163.78,265.97 L 163.72,265.17 L 163.63,262.91 L 163.49,258.32 L 163.49,256.00 L 163.53,251.36 L 163.63,249.10 L 163.86,244.63 L 164.05,242.55 L 164.27,240.44 M 164.53,238.24 L 164.36,239.52 L 164.47,238.51 L 164.75,236.73 L 164.85,236.16 M 165.35,233.49 L 165.23,234.06 L 165.35,233.36 L 165.52,232.74 M 98.64,229.72 L 98.80,228.62 L 99.58,224.53 M 266.58,93.19 L 275.62,93.82 L 280.12,94.23 L 289.05,95.57 L 293.49,96.32 L 302.21,98.37 L 315.00,102.23 L 317.14,102.98 L 321.60,104.77 L 323.85,105.71 L 328.40,107.82 L 330.68,108.90 L 335.15,111.21 L 337.36,112.38 L 341.58,114.79 L 343.63,116.00 L 347.41,118.41 L 349.23,119.60 L 352.39,121.90 L 353.88,123.03 L 356.25,125.12 L 356.78,125.62 L 357.67,126.57 L 358.72,127.90 L 359.43,128.96 L 360.35,131.45 L 360.72,132.74 L 360.96,135.51 L 361.00,136.91 L 360.55,139.74 L 359.10,143.79 L 358.92,144.14 L 358.31,145.05 L 357.98,145.53 L 357.09,146.66 L 356.62,147.25 L 355.49,148.57 L 354.90,149.25 L 353.56,150.72 L 352.18,152.23 L 348.97,155.54 L 347.32,157.21 L 343.80,160.65 L 342.02,162.35 L 338.49,165.61 L 336.76,167.18 L 333.54,169.97 L 332.77,170.62 L 331.33,171.78 L 330.64,172.34 L 329.39,173.28 L 328.79,173.72 L 327.77,174.40 L 326.52,175.09 L 325.07,175.74 L 322.65,176.41 L 321.46,176.64 L 319.07,176.38 L 318.45,176.25 L 317.09,175.79 L 316.39,175.53 L 314.81,174.79 L 313.99,174.39 L 312.11,173.35 L 308.86,171.45 L 306.77,170.19 L 302.63,167.95 L 300.56,166.88 L 296.44,165.01 L 294.37,164.13 L 290.22,162.62 L 288.14,161.92 L 283.92,160.76 L 281.80,160.23 L 277.47,159.42 L 275.28,159.05 L 270.80,158.57 L 268.53,158.36 L 263.84,158.20 L 256.54,158.29 L 253.40,158.43 L 247.40,159.02 L 244.44,159.38 L 238.76,160.43 L 235.95,161.01 L 230.56,162.52 L 227.90,163.34 L 222.77,165.33 L 220.23,166.39 L 215.32,168.88 L 212.89,170.19 L 208.16,173.18 L 205.82,174.75 L 201.25,178.27 L 194.52,184.15 L 193.22,185.39 L 190.83,187.76 L 189.67,188.93 L 187.53,191.23 L 185.46,193.51 L 181.89,198.10 L 180.18,200.43 L 177.07,205.47 L 176.31,206.78 L 174.81,209.57 L 172.56,214.06 L 171.64,215.97 L 170.06,219.45 L 169.31,221.15 L 168.06,224.33 L 167.47,225.90 L 166.53,228.85 L 166.65,228.38 L 167.02,226.58 L 167.09,225.95 L 167.14,224.85 L 167.05,224.50 L 166.80,223.93 L 166.57,223.80 L 165.80,223.25 L 164.78,222.49 L 164.05,221.94 L 162.45,220.72 L 161.46,219.96 L 159.34,218.34 L 158.11,217.39 L 155.55,215.42 L 154.13,214.33 L 151.20,212.07 L 149.62,210.85 L 146.40,208.35 L 144.70,207.04 L 141.26,204.37 L 139.48,202.98 L 113.71,182.95 L 115.76,178.86 L 117.18,176.23 L 120.32,171.00 L 121.94,168.39 L 125.45,163.25 L 127.24,160.70 L 131.06,155.71 L 133.01,153.23 L 137.10,148.44 L 139.17,146.07 L 143.48,141.53 L 145.66,139.29 L 150.14,135.05 L 152.40,132.98 L 157.01,129.10 L 164.02,123.75 L 165.45,122.73 L 168.70,120.60 L 170.38,119.53 L 174.04,117.34 L 177.78,115.15 L 185.91,110.88 L 190.00,108.80 L 198.01,105.17 L 199.95,104.33 L 203.63,102.87 L 208.70,101.06 L 212.95,99.69 L 221.66,97.48 L 226.04,96.47 L 234.95,94.97 L 239.42,94.31 L 248.45,93.52 L 252.97,93.22 L 262.04,93.14 M 106.25,200.31 L 105.71,201.89 L 103.59,208.31 L 102.68,211.42 L 102.20,213.09 L 102.90,210.44 L 104.75,204.51 L 105.72,201.56 L 107.27,197.46 Z" fill="rgba(230,0,20,1)"/>
<path d="M 110.55,322.93 L 108.79,319.01 L 105.75,310.88 L 104.32,306.78 L 101.94,298.36 L 100.84,294.12 L 99.13,285.49 L 98.36,281.15 L 97.32,272.38 L 96.89,267.99 L 96.53,259.16 L 96.44,254.75 L 96.78,245.95 L 97.03,241.55 L 98.07,232.85 L 100.41,219.99 L 100.69,218.73 L 101.42,215.92 L 101.80,214.48 L 102.68,211.42 L 103.59,208.31 L 105.71,201.89 L 106.25,200.31 L 107.34,197.25 L 107.89,195.75 L 108.97,192.96 L 109.50,191.61 L 110.52,189.21 L 111.93,186.19 L 113.61,182.87 L 139.48,202.98 L 141.26,204.37 L 144.70,207.04 L 146.40,208.35 L 149.62,210.85 L 151.20,212.07 L 154.13,214.33 L 155.55,215.42 L 158.11,217.39 L 159.34,218.34 L 161.46,219.96 L 162.45,220.72 L 164.05,221.94 L 164.78,222.49 L 165.80,223.25 L 166.57,223.80 L 166.80,223.93 L 167.05,224.50 L 167.14,224.85 L 167.09,225.95 L 167.02,226.58 L 166.65,228.38 L 165.73,232.00 L 165.35,233.36 L 164.75,236.73 L 164.47,238.51 L 164.05,242.55 L 163.86,244.63 L 163.63,249.10 L 163.53,251.36 L 163.49,256.00 L 163.49,258.32 L 163.63,262.91 L 163.72,265.17 L 164.05,269.45 L 164.23,271.53 L 164.75,275.27 L 165.73,280.00 L 166.01,281.03 L 166.52,282.92 L 166.76,283.82 L 167.14,285.32 L 167.32,286.00 L 167.54,286.95 L 167.65,287.57 L 167.64,287.57 L 167.07,288.00 L 166.70,288.28 L 165.48,289.22 L 164.79,289.75 L 162.97,291.15 L 162.00,291.90 L 159.67,293.69 L 158.45,294.63 L 155.69,296.76 L 154.25,297.86 L 151.12,300.28 L 149.52,301.52 L 146.09,304.16 L 140.71,308.32 L 138.87,309.74 L 135.32,312.47 L 133.58,313.81 L 130.28,316.35 L 128.67,317.58 L 125.70,319.86 L 124.26,320.96 L 121.69,322.92 L 120.46,323.86 L 118.37,325.46 L 117.38,326.20 L 115.83,327.37 L 115.13,327.89 L 114.21,328.58 L 113.60,329.00 L 113.55,329.00 L 113.26,328.52 L 113.08,328.21 L 112.57,327.22 L 112.29,326.67 L 111.63,325.29 L 111.29,324.56 Z" fill="rgba(254,179,0,1)"/>
</g>
</svg>